<svg width="362" height="97" viewBox="0 0 362 97" fill="none" xmlns="http://www.w3.org/2000/svg">
<path d="M2.23498 92.6371C2.03744 92.6371 1.88929 92.5713 1.77406 92.456C1.65882 92.3408 1.59298 92.1926 1.59298 91.9951V84.2746C1.59298 84.077 1.65882 83.9124 1.77406 83.7972C1.88929 83.6819 2.03744 83.6325 2.23498 83.6325C2.41606 83.6325 2.58068 83.6819 2.69591 83.7972C2.81114 83.9124 2.86053 84.077 2.86053 84.2746V91.9951C2.86053 92.1926 2.81114 92.3408 2.69591 92.456C2.58068 92.5713 2.41606 92.6371 2.23498 92.6371ZM2.21852 81.9205C1.9716 81.9205 1.77406 81.8382 1.59298 81.6571C1.4119 81.4761 1.32959 81.2621 1.32959 81.0151C1.32959 80.7353 1.4119 80.5213 1.60944 80.3567C1.77406 80.2085 1.98806 80.1262 2.23498 80.1262C2.46545 80.1262 2.66299 80.2085 2.86053 80.3567C3.04161 80.5213 3.12392 80.7353 3.12392 81.0151C3.12392 81.2621 3.04161 81.4761 2.86053 81.6571C2.67945 81.8382 2.46545 81.9205 2.21852 81.9205Z" fill="#333333"/>
<path d="M7.34456 84.8386C7.66062 84.5225 8.01589 84.2461 8.41097 84.0091C9.00359 83.693 9.63588 83.5349 10.347 83.5349C11.1372 83.5349 11.8486 83.6928 12.4413 84.0484C13.0734 84.3645 13.5472 84.8388 13.9028 85.4709C14.2583 86.1031 14.456 86.8536 14.456 87.7623V92.0291C14.456 92.1872 14.377 92.3451 14.2585 92.4636C14.14 92.5821 13.9821 92.6611 13.8241 92.6611C13.6265 92.6611 13.468 92.5821 13.3495 92.4636C13.231 92.3451 13.152 92.1872 13.152 92.0291V87.7623C13.152 87.0512 13.0333 86.4982 12.7962 86.0636C12.5197 85.629 12.1644 85.3129 11.7298 85.0759C11.2952 84.8783 10.7813 84.7595 10.2282 84.7595C9.67508 84.7595 9.20129 84.8388 8.7667 85.0759C8.33211 85.2734 7.97669 85.5498 7.73964 85.9054C7.50259 86.3005 7.34456 86.6956 7.34456 87.1697V92.0291C7.34456 92.2267 7.3049 92.3846 7.18637 92.4636C7.06785 92.5821 6.90997 92.6611 6.75194 92.6611C6.5544 92.6611 6.3959 92.5821 6.27737 92.4636C6.15885 92.3846 6.07983 92.2267 6.07983 92.0291V84.2857C6.07983 84.0882 6.15885 83.93 6.27737 83.8115C6.3959 83.693 6.5544 83.6533 6.75194 83.6533C6.90997 83.6533 7.06785 83.693 7.18637 83.8115C7.3049 83.93 7.34456 84.0882 7.34456 84.2857V84.8386Z" fill="#333333"/>
<path d="M21.3334 92.7352C20.461 92.7352 19.6873 92.5377 18.9959 92.1261C18.3045 91.731 17.7612 91.1878 17.3662 90.4964C16.9546 89.805 16.7571 89.0149 16.7571 88.1424C16.7571 87.2699 16.9546 86.4962 17.3497 85.8048C17.7283 85.1134 18.2551 84.5702 18.93 84.1586C19.605 83.7636 20.3622 83.566 21.2017 83.566C21.9425 83.566 22.601 83.7142 23.1936 84.027C23.7862 84.3397 24.2636 84.7677 24.6258 85.278V80.4383C24.6258 80.2408 24.6916 80.0926 24.8069 79.9609C24.9221 79.8457 25.0867 79.7963 25.2678 79.7963C25.4489 79.7963 25.6135 79.8457 25.7287 79.9609C25.8439 80.0926 25.9098 80.2408 25.9098 80.4383V88.2082C25.8933 89.0642 25.6793 89.8379 25.2842 90.5129C24.8727 91.2043 24.3295 91.7475 23.6545 92.1426C22.9631 92.5377 22.1894 92.7352 21.3334 92.7352ZM21.3334 91.5829C21.9754 91.5829 22.5351 91.4347 23.0455 91.1219C23.5393 90.8256 23.9344 90.4141 24.2307 89.9038C24.5105 89.3935 24.6587 88.8008 24.6587 88.1424C24.6587 87.5004 24.5105 86.9078 24.2307 86.381C23.9344 85.8707 23.5393 85.4591 23.0455 85.1628C22.5351 84.8665 21.9754 84.7183 21.3334 84.7183C20.7079 84.7183 20.1482 84.8665 19.6379 85.1628C19.1276 85.4591 18.7325 85.8707 18.4362 86.381C18.1399 86.9078 17.9917 87.5004 17.9917 88.1424C17.9917 88.8008 18.1399 89.3935 18.4362 89.9038C18.7325 90.4141 19.1276 90.8256 19.6379 91.1219C20.1482 91.4347 20.7079 91.5829 21.3334 91.5829Z" fill="#333333"/>
<path d="M35.7926 91.4281C35.516 91.7836 35.16 92.06 34.7254 92.2576C34.1723 92.5737 33.5013 92.7318 32.7901 92.7318C31.9999 92.7318 31.328 92.5737 30.6959 92.2576C30.1032 91.9415 29.5899 91.4676 29.2344 90.8354C28.8788 90.2033 28.7205 89.4527 28.7205 88.5441V84.2772C28.7205 84.0797 28.7601 83.9611 28.8786 83.8031C28.9972 83.6845 29.1549 83.6449 29.3524 83.6449C29.5105 83.6449 29.6683 83.6845 29.7869 83.8031C29.9054 83.9611 29.9844 84.0797 29.9844 84.2772V88.5441C29.9844 89.2157 30.1029 89.7687 30.3795 90.2428C30.6165 90.6774 30.9727 90.9935 31.4073 91.2305C31.8814 91.4281 32.3551 91.5465 32.9082 91.5465C33.4613 91.5465 33.9358 91.4281 34.3704 91.2305C34.805 91.033 35.1604 90.7168 35.3975 90.3613C35.6741 90.0057 35.7926 89.6108 35.7926 89.1367V84.2772C35.7926 84.0797 35.8322 83.9216 35.9508 83.8031C36.0693 83.6845 36.227 83.6449 36.4246 83.6449C36.6221 83.6449 36.7405 83.6845 36.859 83.8031C37.017 83.9216 37.0565 84.0797 37.0565 84.2772V92.0207C37.0565 92.2182 37.017 92.3761 36.859 92.4551C36.7405 92.5737 36.6221 92.6527 36.4246 92.6527C36.227 92.6527 36.0693 92.5737 35.9508 92.4551C35.8322 92.3761 35.7926 92.2182 35.7926 92.0207V91.4281Z" fill="#333333"/>
<path d="M43.1432 92.7261C42.5012 92.7261 41.8592 92.6109 41.2172 92.3969C40.5752 92.1828 40.0649 91.8536 39.6698 91.4091C39.5546 91.2775 39.5052 91.1293 39.5216 90.9647C39.5381 90.8001 39.6204 90.6519 39.7686 90.5367C39.9167 90.4214 40.0813 90.3885 40.246 90.405C40.4106 90.4214 40.5423 90.5038 40.6575 90.619C40.9209 90.9318 41.2666 91.1622 41.711 91.3268C42.1391 91.4915 42.6164 91.5738 43.1432 91.5738C43.9498 91.5738 44.5425 91.4256 44.9046 91.1458C45.2668 90.8659 45.4479 90.5367 45.4643 90.1416C45.4643 89.7465 45.2832 89.4173 44.9046 89.1539C44.526 88.907 43.9169 88.7094 43.0609 88.5613C41.958 88.3802 41.1349 88.0839 40.6246 87.6394C40.1143 87.195 39.8509 86.6846 39.8509 86.0756C39.8509 85.5159 39.999 85.0549 40.2953 84.6763C40.5917 84.2977 40.9867 84.0178 41.4806 83.8368C41.9744 83.6557 42.5177 83.5569 43.1103 83.5569C43.8511 83.5569 44.4766 83.6886 45.0199 83.9355C45.5466 84.1825 45.9746 84.5282 46.3039 84.9562C46.4191 85.1043 46.452 85.2525 46.4356 85.4006C46.4191 85.5488 46.3203 85.6805 46.1722 85.7792C46.0405 85.8616 45.8923 85.878 45.7277 85.8451C45.5466 85.8286 45.3985 85.7463 45.2832 85.6146C45.0034 85.3019 44.6906 85.0714 44.3285 84.9068C43.9663 84.7751 43.5548 84.6928 43.0774 84.6928C42.4683 84.6928 41.9909 84.8245 41.6287 85.0549C41.2666 85.3019 41.0855 85.6146 41.0855 85.9932C41.0855 86.2402 41.1514 86.4706 41.2995 86.6517C41.4312 86.8328 41.6617 86.9974 42.0074 87.1456C42.3366 87.2937 42.7975 87.409 43.4066 87.5077C44.2297 87.6394 44.8882 87.837 45.3655 88.0839C45.8429 88.3473 46.1722 88.6436 46.3862 88.9893C46.5837 89.335 46.6825 89.7136 46.6825 90.1251C46.6825 90.6354 46.5343 91.0964 46.238 91.475C45.9252 91.8701 45.5137 92.1828 44.9869 92.3969C44.4437 92.6109 43.8346 92.7261 43.1432 92.7261Z" fill="#333333"/>
<path d="M49.3812 83.9639V81.4356C49.3812 81.2381 49.4603 81.08 49.5788 80.9615C49.6578 80.8429 49.8157 80.7639 50.0132 80.7639C50.2108 80.7639 50.3685 80.8429 50.487 80.9615C50.6055 81.08 50.6452 81.2381 50.6452 81.4356V83.9639H52.5018C52.6598 83.9639 52.8185 84.0431 52.937 84.1221C53.016 84.2406 53.0944 84.3592 53.0944 84.5172C53.0944 84.6752 53.016 84.8333 52.937 84.9123C52.8185 85.0308 52.6598 85.0705 52.5018 85.0705H50.6452V89.4557C50.6452 90.0483 50.8035 90.4829 51.1591 90.8385C51.4752 91.1941 51.9095 91.3918 52.4231 91.3918H52.8575C53.0155 91.3918 53.1734 91.431 53.2919 91.5496C53.4105 91.6681 53.4501 91.8262 53.4501 92.0237C53.4501 92.2213 53.3711 92.3792 53.2526 92.4582C53.1341 92.5767 52.9763 92.6557 52.7788 92.6557H52.4231C51.8304 92.6557 51.3168 92.4978 50.8427 92.2213C50.4081 91.9447 50.0529 91.5892 49.7763 91.1151C49.4998 90.641 49.3812 90.0879 49.3812 89.4557V85.0705H48.3141C48.156 85.0705 47.998 85.0308 47.919 84.9123C47.8005 84.8333 47.7214 84.6752 47.7214 84.5172C47.7214 84.3592 47.8005 84.2406 47.919 84.1221C47.998 84.0431 48.156 83.9639 48.3141 83.9639H49.3812Z" fill="#333333"/>
<path d="M56.7703 84.9968C57.0469 84.6017 57.4021 84.2461 57.8367 84.0091C58.3503 83.693 58.9431 83.5349 59.5752 83.5349C60.0888 83.5349 60.4839 83.6137 60.7605 83.7718C61.037 83.8903 61.1164 84.1276 61.0768 84.4041C60.9978 84.5622 60.9585 84.6806 60.84 84.7201C60.7214 84.7596 60.6029 84.7992 60.4449 84.7992C60.3263 84.7597 60.1283 84.7595 59.9703 84.7595C59.3382 84.6805 58.7854 84.7595 58.3113 84.957C57.8372 85.1151 57.4814 85.3918 57.1654 85.7869C56.8888 86.1425 56.7703 86.577 56.7703 87.0906V92.0291C56.7703 92.2267 56.6911 92.3848 56.6121 92.5033C56.4936 92.5823 56.3359 92.6611 56.1383 92.6611C55.9408 92.6611 55.7823 92.5823 55.6638 92.5033C55.5847 92.3848 55.5063 92.2267 55.5063 92.0291V84.2857C55.5063 84.0882 55.5847 83.93 55.6638 83.8115C55.7823 83.693 55.9408 83.6533 56.1383 83.6533C56.3359 83.6533 56.4936 83.693 56.6121 83.8115C56.6911 83.93 56.7703 84.0882 56.7703 84.2857V84.9968Z" fill="#333333"/>
<path d="M63.9332 92.6371C63.7357 92.6371 63.5875 92.5713 63.4723 92.456C63.3571 92.3408 63.2912 92.1926 63.2912 91.9951V84.2746C63.2912 84.077 63.3571 83.9124 63.4723 83.7972C63.5875 83.6819 63.7357 83.6325 63.9332 83.6325C64.1143 83.6325 64.2789 83.6819 64.3942 83.7972C64.5094 83.9124 64.5588 84.077 64.5588 84.2746V91.9951C64.5588 92.1926 64.5094 92.3408 64.3942 92.456C64.2789 92.5713 64.1143 92.6371 63.9332 92.6371ZM63.9168 81.9205C63.6698 81.9205 63.4723 81.8382 63.2912 81.6571C63.1101 81.4761 63.0278 81.2621 63.0278 81.0151C63.0278 80.7353 63.1101 80.5213 63.3077 80.3567C63.4723 80.2085 63.6863 80.1262 63.9332 80.1262C64.1637 80.1262 64.3612 80.2085 64.5588 80.3567C64.7399 80.5213 64.8222 80.7353 64.8222 81.0151C64.8222 81.2621 64.7399 81.4761 64.5588 81.6571C64.3777 81.8382 64.1637 81.9205 63.9168 81.9205Z" fill="#333333"/>
<path d="M76.4825 88.1401V92.0118C76.4825 92.2094 76.4035 92.3672 76.285 92.4463C76.1665 92.5648 76.0086 92.6438 75.8506 92.6438C75.653 92.6438 75.4945 92.5648 75.376 92.4463C75.2575 92.3672 75.1784 92.2094 75.1784 92.0118V91.0241C74.8624 91.4982 74.4281 91.8539 73.9145 92.17C73.2824 92.5256 72.5711 92.7229 71.7809 92.7229C70.9117 92.7229 70.1608 92.5254 69.4891 92.1303C68.8175 91.7352 68.3039 91.182 67.9088 90.4709C67.5137 89.7992 67.3162 89.0093 67.3162 88.1401C67.3162 87.2709 67.5143 86.4808 67.9489 85.7696C68.344 85.098 68.8574 84.5446 69.5686 84.1496C70.2402 83.7545 71.0306 83.5569 71.8997 83.5569C72.7689 83.5569 73.5585 83.7545 74.2301 84.1496C74.9017 84.5446 75.4555 85.098 75.8506 85.7696C76.2456 86.4808 76.4825 87.2709 76.4825 88.1401ZM71.8997 91.5774C72.5319 91.5774 73.124 91.4193 73.5981 91.1032C74.1117 90.8267 74.5068 90.4313 74.7834 89.8782C75.0994 89.3646 75.2178 88.7722 75.2178 88.1401C75.2178 87.4685 75.0994 86.9154 74.7834 86.3622C74.5068 85.8486 74.1117 85.4533 73.5981 85.1373C73.124 84.8607 72.5319 84.7028 71.8997 84.7028C71.2676 84.7028 70.7142 84.8607 70.2006 85.1373C69.687 85.4533 69.2919 85.8486 69.0153 86.3622C68.6993 86.9154 68.5809 87.4685 68.5809 88.1401C68.5809 88.7722 68.6993 89.3646 69.0153 89.8782C69.2919 90.4313 69.687 90.8267 70.2006 91.1032C70.7142 91.4193 71.2676 91.5774 71.8997 91.5774Z" fill="#333333"/>
<path d="M80.8696 92.6529C80.4251 92.6529 80.0465 92.5376 79.7008 92.2907C79.3551 92.0438 79.0753 91.7146 78.8942 91.2865C78.6967 90.8585 78.5979 90.3647 78.5979 89.805V80.4218C78.5979 80.2408 78.6637 80.0926 78.779 79.9609C78.8942 79.8457 79.0424 79.7963 79.2234 79.7963C79.4045 79.7963 79.5691 79.8457 79.6844 79.9609C79.7831 80.0926 79.849 80.2408 79.849 80.4218V89.805C79.849 90.2824 79.9478 90.661 80.1453 90.9573C80.3264 91.2536 80.5733 91.4018 80.8696 91.4018H81.2812C81.4458 91.4018 81.5775 91.4512 81.6762 91.5664C81.775 91.6981 81.8244 91.8462 81.8244 92.0273C81.8244 92.2084 81.7585 92.3566 81.6269 92.4718C81.4787 92.587 81.2976 92.6529 81.0836 92.6529H80.8696Z" fill="#333333"/>
<path d="M91.547 92.7261C90.905 92.7261 90.263 92.6109 89.621 92.3969C88.979 92.1828 88.4687 91.8536 88.0736 91.4091C87.9584 91.2775 87.909 91.1293 87.9254 90.9647C87.9419 90.8001 88.0242 90.6519 88.1724 90.5367C88.3205 90.4214 88.4851 90.3885 88.6498 90.405C88.8144 90.4214 88.9461 90.5038 89.0613 90.619C89.3247 90.9318 89.6704 91.1622 90.1149 91.3268C90.5429 91.4915 91.0203 91.5738 91.547 91.5738C92.3537 91.5738 92.9463 91.4256 93.3084 91.1458C93.6706 90.8659 93.8517 90.5367 93.8681 90.1416C93.8681 89.7465 93.6871 89.4173 93.3084 89.1539C92.9298 88.907 92.3207 88.7094 91.4647 88.5613C90.3618 88.3802 89.5387 88.0839 89.0284 87.6394C88.5181 87.195 88.2547 86.6846 88.2547 86.0756C88.2547 85.5159 88.4028 85.0549 88.6992 84.6763C88.9955 84.2977 89.3905 84.0178 89.8844 83.8368C90.3782 83.6557 90.9215 83.5569 91.5141 83.5569C92.2549 83.5569 92.8804 83.6886 93.4237 83.9355C93.9504 84.1825 94.3784 84.5282 94.7077 84.9562C94.8229 85.1043 94.8558 85.2525 94.8394 85.4006C94.8229 85.5488 94.7241 85.6805 94.576 85.7792C94.4443 85.8616 94.2961 85.878 94.1315 85.8451C93.9504 85.8286 93.8023 85.7463 93.6871 85.6146C93.4072 85.3019 93.0944 85.0714 92.7323 84.9068C92.3701 84.7751 91.9586 84.6928 91.4812 84.6928C90.8721 84.6928 90.3947 84.8245 90.0326 85.0549C89.6704 85.3019 89.4893 85.6146 89.4893 85.9932C89.4893 86.2402 89.5552 86.4706 89.7033 86.6517C89.835 86.8328 90.0655 86.9974 90.4112 87.1456C90.7404 87.2937 91.2013 87.409 91.8104 87.5077C92.6335 87.6394 93.292 87.837 93.7694 88.0839C94.2468 88.3473 94.576 88.6436 94.79 88.9893C94.9875 89.335 95.0863 89.7136 95.0863 90.1251C95.0863 90.6354 94.9381 91.0964 94.6418 91.475C94.3291 91.8701 93.9175 92.1828 93.3907 92.3969C92.8475 92.6109 92.2384 92.7261 91.547 92.7261Z" fill="#333333"/>
<path d="M101.373 92.7261C100.5 92.7261 99.7099 92.5285 99.0185 92.1335C98.3271 91.7384 97.7838 91.1951 97.3888 90.5038C96.9937 89.8124 96.7961 89.0222 96.7961 88.1497C96.7961 87.2608 96.9937 86.4706 97.3888 85.7792C97.7838 85.0879 98.3271 84.5446 99.0185 84.1495C99.7099 83.7545 100.5 83.5569 101.373 83.5569C102.245 83.5569 103.035 83.7545 103.727 84.1495C104.401 84.5446 104.945 85.0879 105.34 85.7792C105.735 86.4706 105.932 87.2608 105.949 88.1497C105.949 89.0222 105.751 89.8124 105.356 90.5038C104.945 91.1951 104.401 91.7384 103.727 92.1335C103.035 92.5285 102.245 92.7261 101.373 92.7261ZM101.373 91.5738C102.015 91.5738 102.574 91.4256 103.085 91.1293C103.595 90.833 103.99 90.4214 104.27 89.9111C104.55 89.4008 104.698 88.8082 104.698 88.1497C104.698 87.4913 104.55 86.8986 104.27 86.3719C103.99 85.8616 103.595 85.45 103.085 85.1537C102.574 84.8574 102.015 84.7092 101.373 84.7092C100.73 84.7092 100.171 84.8574 99.6605 85.1537C99.1502 85.45 98.7551 85.8616 98.4752 86.3719C98.1789 86.8986 98.0308 87.4913 98.0308 88.1497C98.0308 88.8082 98.1789 89.4008 98.4752 89.9111C98.7551 90.4214 99.1502 90.833 99.6605 91.1293C100.171 91.4256 100.73 91.5738 101.373 91.5738Z" fill="#333333"/>
<path d="M110.361 92.6529C109.916 92.6529 109.537 92.5376 109.192 92.2907C108.846 92.0438 108.566 91.7146 108.385 91.2865C108.188 90.8585 108.089 90.3647 108.089 89.805V80.4218C108.089 80.2408 108.155 80.0926 108.27 79.9609C108.385 79.8457 108.533 79.7963 108.714 79.7963C108.895 79.7963 109.06 79.8457 109.175 79.9609C109.274 80.0926 109.34 80.2408 109.34 80.4218V89.805C109.34 90.2824 109.439 90.661 109.636 90.9573C109.817 91.2536 110.064 91.4018 110.361 91.4018H110.772C110.937 91.4018 111.068 91.4512 111.167 91.5664C111.266 91.6981 111.315 91.8462 111.315 92.0273C111.315 92.2084 111.25 92.3566 111.118 92.4718C110.97 92.587 110.789 92.6529 110.575 92.6529H110.361Z" fill="#333333"/>
<path d="M119.977 84.2772C119.977 84.0797 120.056 83.9216 120.175 83.8031C120.293 83.6845 120.412 83.6449 120.609 83.6449C120.807 83.6449 120.965 83.6845 121.084 83.8031C121.202 83.9216 121.241 84.0797 121.241 84.2772V92.0207C121.241 92.2182 121.202 92.3761 121.084 92.4551C120.965 92.5737 120.807 92.6527 120.609 92.6527C120.412 92.6527 120.293 92.5737 120.175 92.4551C120.056 92.3761 119.977 92.2182 119.977 92.0207V91.4281C119.701 91.7836 119.345 92.06 118.95 92.2576C118.358 92.5737 117.686 92.7318 116.975 92.7318C116.224 92.7318 115.513 92.5737 114.881 92.2576C114.288 91.9415 113.814 91.4676 113.459 90.8354C113.103 90.2033 112.905 89.4527 112.905 88.5441V84.2772C112.905 84.0797 112.984 83.9611 113.103 83.8031C113.221 83.6845 113.34 83.6449 113.537 83.6449C113.735 83.6449 113.854 83.6845 114.012 83.8031C114.13 83.9611 114.17 84.0797 114.17 84.2772V88.5441C114.17 89.2157 114.289 89.7687 114.565 90.2428C114.802 90.6774 115.157 90.9935 115.631 91.2305C116.066 91.4281 116.58 91.5465 117.133 91.5465C117.647 91.5465 118.16 91.4281 118.595 91.2305C119.029 91.033 119.345 90.7168 119.622 90.3613C119.859 90.0057 119.977 89.6108 119.977 89.1367V84.2772Z" fill="#333333"/>
<path d="M124.724 83.9639V81.4356C124.724 81.2381 124.764 81.08 124.883 80.9615C125.001 80.8429 125.159 80.7639 125.356 80.7639C125.514 80.7639 125.672 80.8429 125.791 80.9615C125.909 81.08 125.988 81.2381 125.988 81.4356V83.9639H127.846C128.004 83.9639 128.162 84.0431 128.241 84.1221C128.359 84.2406 128.438 84.3592 128.438 84.5172C128.438 84.6752 128.359 84.8333 128.241 84.9123C128.162 85.0308 128.004 85.0705 127.846 85.0705H125.988V89.4557C125.988 90.0483 126.147 90.4829 126.463 90.8385C126.819 91.1941 127.213 91.3918 127.727 91.3918H128.201C128.36 91.3918 128.517 91.431 128.636 91.5496C128.715 91.6681 128.794 91.8262 128.794 92.0237C128.794 92.2213 128.715 92.3792 128.597 92.4582C128.439 92.5767 128.28 92.6557 128.083 92.6557H127.727C127.174 92.6557 126.66 92.4978 126.186 92.2213C125.751 91.9447 125.357 91.5892 125.12 91.1151C124.843 90.641 124.724 90.0879 124.724 89.4557V85.0705H123.658C123.5 85.0705 123.341 85.0308 123.223 84.9123C123.144 84.8333 123.065 84.6752 123.065 84.5172C123.065 84.3592 123.144 84.2406 123.223 84.1221C123.341 84.0431 123.5 83.9639 123.658 83.9639H124.724Z" fill="#333333"/>
<path d="M131.723 92.6371C131.525 92.6371 131.377 92.5713 131.262 92.456C131.147 92.3408 131.081 92.1926 131.081 91.9951V84.2746C131.081 84.077 131.147 83.9124 131.262 83.7972C131.377 83.6819 131.525 83.6325 131.723 83.6325C131.904 83.6325 132.068 83.6819 132.184 83.7972C132.299 83.9124 132.348 84.077 132.348 84.2746V91.9951C132.348 92.1926 132.299 92.3408 132.184 92.456C132.068 92.5713 131.904 92.6371 131.723 92.6371ZM131.706 81.9205C131.459 81.9205 131.262 81.8382 131.081 81.6571C130.9 81.4761 130.817 81.2621 130.817 81.0151C130.817 80.7353 130.9 80.5213 131.097 80.3567C131.262 80.2085 131.476 80.1262 131.723 80.1262C131.953 80.1262 132.151 80.2085 132.348 80.3567C132.529 80.5213 132.612 80.7353 132.612 81.0151C132.612 81.2621 132.529 81.4761 132.348 81.6571C132.167 81.8382 131.953 81.9205 131.706 81.9205Z" fill="#333333"/>
<path d="M139.682 92.7261C138.81 92.7261 138.02 92.5285 137.328 92.1335C136.637 91.7384 136.094 91.1951 135.699 90.5038C135.303 89.8124 135.106 89.0222 135.106 88.1497C135.106 87.2608 135.303 86.4706 135.699 85.7792C136.094 85.0879 136.637 84.5446 137.328 84.1495C138.02 83.7545 138.81 83.5569 139.682 83.5569C140.555 83.5569 141.345 83.7545 142.036 84.1495C142.711 84.5446 143.255 85.0879 143.65 85.7792C144.045 86.4706 144.242 87.2608 144.259 88.1497C144.259 89.0222 144.061 89.8124 143.666 90.5038C143.255 91.1951 142.711 91.7384 142.036 92.1335C141.345 92.5285 140.555 92.7261 139.682 92.7261ZM139.682 91.5738C140.324 91.5738 140.884 91.4256 141.394 91.1293C141.905 90.833 142.3 90.4214 142.58 89.9111C142.859 89.4008 143.008 88.8082 143.008 88.1497C143.008 87.4913 142.859 86.8986 142.58 86.3719C142.3 85.8616 141.905 85.45 141.394 85.1537C140.884 84.8574 140.324 84.7092 139.682 84.7092C139.04 84.7092 138.481 84.8574 137.97 85.1537C137.46 85.45 137.065 85.8616 136.785 86.3719C136.489 86.8986 136.341 87.4913 136.341 88.1497C136.341 88.8082 136.489 89.4008 136.785 89.9111C137.065 90.4214 137.46 90.833 137.97 91.1293C138.481 91.4256 139.04 91.5738 139.682 91.5738Z" fill="#333333"/>
<path d="M147.993 84.8386C148.309 84.5225 148.665 84.2461 149.06 84.0091C149.652 83.693 150.285 83.5349 150.996 83.5349C151.786 83.5349 152.497 83.6928 153.09 84.0484C153.722 84.3645 154.196 84.8388 154.551 85.4709C154.907 86.1031 155.105 86.8536 155.105 87.7623V92.0291C155.105 92.1872 155.026 92.3451 154.907 92.4636C154.789 92.5821 154.631 92.6611 154.473 92.6611C154.275 92.6611 154.117 92.5821 153.998 92.4636C153.88 92.3451 153.801 92.1872 153.801 92.0291V87.7623C153.801 87.0512 153.682 86.4982 153.445 86.0636C153.168 85.629 152.813 85.3129 152.378 85.0759C151.944 84.8783 151.43 84.7595 150.877 84.7595C150.324 84.7595 149.85 84.8388 149.415 85.0759C148.981 85.2734 148.625 85.5498 148.388 85.9054C148.151 86.3005 147.993 86.6956 147.993 87.1697V92.0291C147.993 92.2267 147.954 92.3846 147.835 92.4636C147.717 92.5821 147.559 92.6611 147.401 92.6611C147.203 92.6611 147.045 92.5821 146.926 92.4636C146.808 92.3846 146.729 92.2267 146.729 92.0291V84.2857C146.729 84.0882 146.808 83.93 146.926 83.8115C147.045 83.693 147.203 83.6533 147.401 83.6533C147.559 83.6533 147.717 83.693 147.835 83.8115C147.954 83.93 147.993 84.0882 147.993 84.2857V84.8386Z" fill="#333333"/>
<path d="M163.203 83.962V83.646C163.203 82.8954 163.361 82.2239 163.599 81.6313C163.875 81.0387 164.27 80.6039 164.784 80.2879C165.297 79.9323 165.929 79.7743 166.68 79.7743C166.877 79.7743 166.996 79.8533 167.154 79.9719C167.273 80.0509 167.312 80.2089 167.312 80.3669C167.312 80.525 167.273 80.683 167.154 80.762C166.996 80.8806 166.877 80.9596 166.68 80.9596C166.166 80.9596 165.771 81.0385 165.455 81.2756C165.139 81.5126 164.902 81.8288 164.744 82.2239C164.547 82.619 164.467 83.0931 164.467 83.6067V83.962H166.443C166.64 83.962 166.759 84.0412 166.877 84.1202C166.996 84.2387 167.035 84.3573 167.035 84.5153C167.035 84.6733 166.996 84.8314 166.877 84.9104C166.759 85.0289 166.64 85.0686 166.443 85.0686H164.467V92.0218C164.467 92.2194 164.428 92.3773 164.309 92.4563C164.191 92.5748 164.033 92.6538 163.835 92.6538C163.677 92.6538 163.519 92.5748 163.401 92.4563C163.282 92.3773 163.203 92.2194 163.203 92.0218V85.0686H162.176C161.979 85.0686 161.86 85.0289 161.741 84.9104C161.623 84.8314 161.584 84.6733 161.584 84.5153C161.584 84.3573 161.623 84.2387 161.741 84.1202C161.86 84.0412 161.979 83.962 162.176 83.962H163.203Z" fill="#333333"/>
<path d="M172.494 92.7261C171.621 92.7261 170.831 92.5285 170.14 92.1335C169.448 91.7384 168.905 91.1951 168.51 90.5038C168.115 89.8124 167.917 89.0222 167.917 88.1497C167.917 87.2608 168.115 86.4706 168.51 85.7792C168.905 85.0879 169.448 84.5446 170.14 84.1495C170.831 83.7545 171.621 83.5569 172.494 83.5569C173.366 83.5569 174.156 83.7545 174.848 84.1495C175.523 84.5446 176.066 85.0879 176.461 85.7792C176.856 86.4706 177.054 87.2608 177.07 88.1497C177.07 89.0222 176.873 89.8124 176.478 90.5038C176.066 91.1951 175.523 91.7384 174.848 92.1335C174.156 92.5285 173.366 92.7261 172.494 92.7261ZM172.494 91.5738C173.136 91.5738 173.696 91.4256 174.206 91.1293C174.716 90.833 175.111 90.4214 175.391 89.9111C175.671 89.4008 175.819 88.8082 175.819 88.1497C175.819 87.4913 175.671 86.8986 175.391 86.3719C175.111 85.8616 174.716 85.45 174.206 85.1537C173.696 84.8574 173.136 84.7092 172.494 84.7092C171.852 84.7092 171.292 84.8574 170.782 85.1537C170.272 85.45 169.876 85.8616 169.597 86.3719C169.3 86.8986 169.152 87.4913 169.152 88.1497C169.152 88.8082 169.3 89.4008 169.597 89.9111C169.876 90.4214 170.272 90.833 170.782 91.1293C171.292 91.4256 171.852 91.5738 172.494 91.5738Z" fill="#333333"/>
<path d="M180.776 84.9968C181.092 84.6017 181.447 84.2461 181.882 84.0091C182.395 83.693 182.988 83.5349 183.62 83.5349C184.094 83.5349 184.49 83.6137 184.766 83.7718C185.043 83.8903 185.162 84.1276 185.083 84.4041C185.043 84.5622 184.964 84.6806 184.885 84.7201C184.767 84.7596 184.648 84.7992 184.49 84.7992C184.332 84.7597 184.174 84.7595 183.976 84.7595C183.383 84.6805 182.831 84.7595 182.356 84.957C181.882 85.1151 181.487 85.3918 181.211 85.7869C180.934 86.1425 180.776 86.577 180.776 87.0906V92.0291C180.776 92.2267 180.736 92.3848 180.618 92.5033C180.499 92.5823 180.381 92.6611 180.183 92.6611C179.986 92.6611 179.827 92.5823 179.709 92.5033C179.59 92.3848 179.552 92.2267 179.552 92.0291V84.2857C179.552 84.0882 179.59 83.93 179.709 83.8115C179.827 83.693 179.986 83.6533 180.183 83.6533C180.381 83.6533 180.499 83.693 180.618 83.8115C180.736 83.93 180.776 84.0882 180.776 84.2857V84.9968Z" fill="#333333"/>
<path d="M191.684 92.6529C191.503 92.6529 191.355 92.587 191.24 92.4553C191.108 92.3401 191.042 92.1919 191.042 92.0109V80.4383C191.042 80.2572 191.108 80.0926 191.223 79.9774C191.338 79.8621 191.503 79.7963 191.684 79.7963H199.405C199.586 79.7963 199.75 79.8457 199.865 79.9609C199.981 80.0926 200.047 80.2408 200.047 80.4218C200.047 80.5865 199.981 80.7346 199.865 80.8498C199.75 80.9651 199.586 81.0309 199.405 81.0309H192.326V85.5743H197.479C197.66 85.5743 197.824 85.6402 197.939 85.7554C198.055 85.8707 198.121 86.0188 198.121 86.1999C198.121 86.381 198.055 86.5291 197.939 86.6444C197.824 86.7596 197.66 86.8254 197.479 86.8254H192.326V92.0109C192.326 92.1919 192.26 92.3401 192.145 92.4553C192.03 92.587 191.865 92.6529 191.684 92.6529Z" fill="#333333"/>
<path d="M202.988 92.6529C202.807 92.6529 202.642 92.587 202.527 92.4718C202.412 92.3566 202.346 92.1919 202.346 92.0109V80.4383C202.346 80.2572 202.412 80.0926 202.527 79.9774C202.642 79.8621 202.807 79.7963 202.988 79.7963H205.951C206.889 79.7963 207.762 79.9445 208.552 80.2572C209.326 80.5865 210.001 81.0145 210.577 81.5906C211.153 82.1832 211.597 82.8582 211.91 83.6319C212.223 84.4056 212.371 85.278 212.371 86.2164C212.371 87.1547 212.223 88.0271 211.91 88.8008C211.597 89.591 211.153 90.2659 210.577 90.8421C210.001 91.4182 209.326 91.8627 208.552 92.1755C207.762 92.4883 206.889 92.6529 205.951 92.6529H202.988ZM203.63 91.5006H205.951C206.955 91.5006 207.861 91.2701 208.634 90.8092C209.408 90.3647 210.001 89.7392 210.445 88.9325C210.89 88.1424 211.104 87.237 211.104 86.2164C211.104 85.1957 210.89 84.2903 210.445 83.4837C210.001 82.6936 209.408 82.068 208.634 81.6235C207.861 81.1791 206.955 80.9486 205.951 80.9486H203.63V91.5006Z" fill="#333333"/>
<path d="M215.666 92.6529C215.485 92.6529 215.337 92.587 215.222 92.4553C215.09 92.3401 215.024 92.1919 215.024 92.0109V80.4383C215.024 80.2572 215.09 80.0926 215.222 79.9774C215.337 79.8621 215.485 79.7963 215.666 79.7963C215.93 79.7963 216.127 79.9115 216.242 80.1255L221.51 90.5952L226.679 80.1255C226.811 79.9115 227.008 79.7963 227.255 79.7963C227.436 79.7963 227.584 79.8621 227.7 79.9774C227.815 80.0926 227.881 80.2572 227.881 80.4383V92.0109C227.881 92.1919 227.815 92.3401 227.7 92.4553C227.584 92.587 227.436 92.6529 227.255 92.6529C227.074 92.6529 226.91 92.587 226.794 92.4553C226.663 92.3401 226.597 92.1919 226.597 92.0109V82.6936L222.02 92.0438C221.905 92.2578 221.708 92.3566 221.461 92.3566C221.181 92.3566 220.983 92.2249 220.868 91.9615L216.308 82.8417V92.0109C216.308 92.1919 216.242 92.3401 216.127 92.4553C215.995 92.587 215.847 92.6529 215.666 92.6529Z" fill="#333333"/>
<path d="M242.38 85.1152C242.657 84.6411 243.051 84.2856 243.486 84.0091C244.039 83.693 244.632 83.5349 245.343 83.5349C245.975 83.5349 246.568 83.693 247.042 84.0091C247.555 84.3251 247.95 84.7596 248.227 85.3128C248.503 85.8659 248.622 86.5375 248.622 87.2882V92.0291C248.622 92.2267 248.582 92.3846 248.464 92.4636C248.345 92.5821 248.187 92.6611 248.029 92.6611C247.832 92.6611 247.674 92.5821 247.556 92.4636C247.437 92.3846 247.358 92.2267 247.358 92.0291V87.2882C247.358 86.498 247.161 85.9053 246.765 85.4312C246.37 84.9966 245.817 84.7595 245.185 84.7595C244.513 84.7595 243.96 84.9966 243.525 85.4312C243.091 85.9053 242.893 86.4979 242.893 87.2091V87.2488V87.2882V92.0291C242.893 92.2267 242.854 92.3846 242.735 92.4636C242.617 92.5821 242.459 92.6611 242.261 92.6611C242.064 92.6611 241.945 92.5821 241.827 92.4636C241.669 92.3846 241.629 92.2267 241.629 92.0291V87.2882C241.629 86.498 241.432 85.9053 241.037 85.4312C240.602 84.9966 240.089 84.7595 239.456 84.7595C238.785 84.7595 238.231 84.9571 237.757 85.4312C237.323 85.8658 237.125 86.4586 237.125 87.1697V92.0291C237.125 92.2267 237.046 92.3846 236.928 92.4636C236.849 92.5821 236.691 92.6611 236.493 92.6611C236.296 92.6611 236.137 92.5821 236.019 92.4636C235.9 92.3846 235.861 92.2267 235.861 92.0291V84.2857C235.861 84.0882 235.9 83.9695 236.019 83.8115C236.137 83.693 236.296 83.6533 236.493 83.6533C236.691 83.6533 236.849 83.693 236.928 83.8115C237.046 83.9695 237.125 84.0882 237.125 84.2857V84.641C237.323 84.404 237.6 84.1671 237.876 84.0091C238.39 83.693 238.942 83.5349 239.574 83.5349C240.246 83.5349 240.799 83.693 241.313 84.0091C241.748 84.2856 242.104 84.6411 242.38 85.1152Z" fill="#333333"/>
<path d="M258.81 91.0241C258.494 91.4982 258.059 91.8539 257.545 92.17C256.913 92.5256 256.203 92.7229 255.412 92.7229C254.543 92.7229 253.792 92.5254 253.121 92.1303C252.449 91.7352 251.935 91.182 251.54 90.4709C251.145 89.7992 250.948 89.0093 250.948 88.1401C250.948 87.2709 251.145 86.4808 251.54 85.7696C251.975 85.098 252.488 84.5446 253.199 84.1496C253.871 83.7545 254.661 83.5569 255.531 83.5569C256.4 83.5569 257.19 83.7545 257.862 84.1496C258.533 84.5446 259.086 85.098 259.481 85.7696C259.876 86.4808 260.113 87.2709 260.113 88.1401V92.0118C260.113 92.2094 260.034 92.3672 259.916 92.4463C259.797 92.5648 259.639 92.6438 259.481 92.6438C259.284 92.6438 259.126 92.5648 259.008 92.4463C258.889 92.3672 258.81 92.2094 258.81 92.0118V91.0241ZM255.531 91.5774C256.163 91.5774 256.756 91.4193 257.23 91.1032C257.743 90.8267 258.138 90.4313 258.415 89.8782C258.731 89.3646 258.849 88.7722 258.849 88.1401C258.849 87.4685 258.731 86.9154 258.415 86.3622C258.138 85.8486 257.743 85.4533 257.23 85.1373C256.756 84.8607 256.163 84.7028 255.531 84.7028C254.898 84.7028 254.346 84.8607 253.832 85.1373C253.319 85.4533 252.923 85.8486 252.647 86.3622C252.331 86.9154 252.172 87.4685 252.172 88.1401C252.172 88.7722 252.331 89.3646 252.647 89.8782C252.923 90.4313 253.319 90.8267 253.832 91.1032C254.346 91.4193 254.898 91.5774 255.531 91.5774Z" fill="#333333"/>
<path d="M263.823 84.8386C264.139 84.5225 264.495 84.2461 264.89 84.0091C265.483 83.693 266.115 83.5349 266.826 83.5349C267.616 83.5349 268.327 83.6928 268.92 84.0484C269.552 84.3645 270.026 84.8388 270.381 85.4709C270.737 86.1031 270.935 86.8536 270.935 87.7623V92.0291C270.935 92.1872 270.856 92.3451 270.737 92.4636C270.619 92.5821 270.461 92.6611 270.303 92.6611C270.105 92.6611 269.948 92.5821 269.829 92.4636C269.71 92.3451 269.671 92.1872 269.671 92.0291V87.7623C269.671 87.0512 269.513 86.4982 269.276 86.0636C268.999 85.629 268.643 85.3129 268.209 85.0759C267.774 84.8783 267.261 84.7595 266.708 84.7595C266.155 84.7595 265.68 84.8388 265.245 85.0759C264.811 85.2734 264.455 85.5498 264.218 85.9054C263.981 86.3005 263.823 86.6956 263.823 87.1697V92.0291C263.823 92.2267 263.784 92.3846 263.665 92.4636C263.547 92.5821 263.389 92.6611 263.231 92.6611C263.033 92.6611 262.875 92.5821 262.757 92.4636C262.638 92.3846 262.559 92.2267 262.559 92.0291V84.2857C262.559 84.0882 262.638 83.93 262.757 83.8115C262.875 83.693 263.033 83.6533 263.231 83.6533C263.389 83.6533 263.547 83.693 263.665 83.8115C263.784 83.93 263.823 84.0882 263.823 84.2857V84.8386Z" fill="#333333"/>
<path d="M280.617 84.2772C280.617 84.0797 280.696 83.9216 280.814 83.8031C280.933 83.6845 281.091 83.6449 281.249 83.6449C281.446 83.6449 281.605 83.6845 281.723 83.8031C281.842 83.9216 281.921 84.0797 281.921 84.2772V92.0207C281.921 92.2182 281.842 92.3761 281.723 92.4551C281.605 92.5737 281.446 92.6527 281.249 92.6527C281.091 92.6527 280.933 92.5737 280.814 92.4551C280.696 92.3761 280.617 92.2182 280.617 92.0207V91.4281C280.34 91.7836 279.985 92.06 279.59 92.2576C278.997 92.5737 278.365 92.7318 277.654 92.7318C276.864 92.7318 276.153 92.5737 275.56 92.2576C274.928 91.9415 274.454 91.4676 274.098 90.8354C273.742 90.2033 273.545 89.4527 273.545 88.5441V84.2772C273.545 84.0797 273.624 83.9611 273.742 83.8031C273.861 83.6845 274.019 83.6449 274.177 83.6449C274.375 83.6449 274.533 83.6845 274.651 83.8031C274.77 83.9611 274.809 84.0797 274.809 84.2772V88.5441C274.809 89.2157 274.967 89.7687 275.204 90.2428C275.481 90.6774 275.836 90.9935 276.271 91.2305C276.705 91.4281 277.219 91.5465 277.773 91.5465C278.326 91.5465 278.799 91.4281 279.234 91.2305C279.669 91.033 279.985 90.7168 280.261 90.3613C280.498 90.0057 280.617 89.6108 280.617 89.1367V84.2772Z" fill="#333333"/>
<path d="M285.357 83.962V83.646C285.357 82.8954 285.516 82.2239 285.753 81.6313C286.029 81.0387 286.424 80.6039 286.938 80.2879C287.451 79.9323 288.084 79.7743 288.834 79.7743C289.032 79.7743 289.19 79.8533 289.308 79.9719C289.427 80.0509 289.466 80.2089 289.466 80.3669C289.466 80.525 289.427 80.683 289.308 80.762C289.19 80.8806 289.032 80.9596 288.834 80.9596C288.321 80.9596 287.926 81.0385 287.61 81.2756C287.294 81.5126 287.056 81.8288 286.898 82.2239C286.74 82.619 286.662 83.0931 286.662 83.6067V83.962H288.637C288.795 83.962 288.953 84.0412 289.032 84.1202C289.151 84.2387 289.19 84.3573 289.19 84.5153C289.19 84.6733 289.151 84.8314 289.032 84.9104C288.953 85.0289 288.795 85.0686 288.637 85.0686H286.662V92.0218C286.662 92.2194 286.583 92.3773 286.464 92.4563C286.345 92.5748 286.187 92.6538 285.989 92.6538C285.831 92.6538 285.674 92.5748 285.555 92.4563C285.436 92.3773 285.357 92.2194 285.357 92.0218V85.0686H284.33C284.133 85.0686 284.015 85.0289 283.896 84.9104C283.817 84.8314 283.738 84.6733 283.738 84.5153C283.738 84.3573 283.817 84.2387 283.896 84.1202C284.015 84.0412 284.133 83.962 284.33 83.962H285.357Z" fill="#333333"/>
<path d="M299.23 88.1401V92.0118C299.23 92.2094 299.192 92.3672 299.073 92.4463C298.955 92.5648 298.796 92.6438 298.599 92.6438C298.401 92.6438 298.243 92.5648 298.125 92.4463C298.006 92.3672 297.967 92.2094 297.967 92.0118V91.0241C297.611 91.4982 297.177 91.8539 296.703 92.17C296.07 92.5256 295.32 92.7229 294.53 92.7229C293.7 92.7229 292.949 92.5254 292.277 92.1303C291.606 91.7352 291.053 91.182 290.658 90.4709C290.302 89.7992 290.104 89.0093 290.104 88.1401C290.104 87.2709 290.302 86.4808 290.697 85.7696C291.092 85.098 291.645 84.5446 292.317 84.1496C293.028 83.7545 293.818 83.5569 294.648 83.5569C295.517 83.5569 296.307 83.7545 296.979 84.1496C297.69 84.5446 298.243 85.098 298.638 85.7696C299.033 86.4808 299.23 87.2709 299.23 88.1401ZM294.648 91.5774C295.319 91.5774 295.873 91.4193 296.386 91.1032C296.86 90.8267 297.255 90.4313 297.571 89.8782C297.848 89.3646 298.006 88.7722 298.006 88.1401C298.006 87.4685 297.848 86.9154 297.571 86.3622C297.255 85.8486 296.86 85.4533 296.386 85.1373C295.873 84.8607 295.319 84.7028 294.648 84.7028C294.055 84.7028 293.463 84.8607 292.989 85.1373C292.475 85.4533 292.08 85.8486 291.764 86.3622C291.487 86.9154 291.329 87.4685 291.329 88.1401C291.329 88.7722 291.487 89.3646 291.764 89.8782C292.08 90.4313 292.475 90.8267 292.989 91.1032C293.463 91.4193 294.055 91.5774 294.648 91.5774Z" fill="#333333"/>
<path d="M305.726 92.7261C304.854 92.7261 304.097 92.5285 303.422 92.117C302.747 91.7219 302.203 91.1787 301.825 90.4873C301.43 89.7959 301.232 89.0222 301.232 88.1497C301.232 87.2773 301.413 86.4871 301.792 85.7957C302.17 85.1043 302.681 84.5611 303.323 84.1495C303.965 83.7545 304.722 83.5569 305.562 83.5569C306.237 83.5569 306.846 83.6886 307.422 83.952C307.981 84.2154 308.475 84.6105 308.903 85.1372C309.019 85.2689 309.068 85.4006 309.035 85.5488C309.002 85.6969 308.903 85.8286 308.755 85.9439C308.64 86.0262 308.508 86.0591 308.36 86.0262C308.212 86.0097 308.08 85.9274 307.965 85.7957C307.323 85.0714 306.533 84.7092 305.562 84.7092C304.953 84.7092 304.409 84.8574 303.948 85.1537C303.471 85.45 303.109 85.8616 302.862 86.3719C302.599 86.8822 302.467 87.4748 302.467 88.1497C302.467 88.8082 302.599 89.4008 302.878 89.9111C303.158 90.4214 303.537 90.833 304.031 91.1293C304.525 91.4256 305.084 91.5738 305.726 91.5738C306.154 91.5738 306.549 91.5079 306.911 91.3927C307.257 91.2775 307.57 91.1128 307.85 90.8659C307.981 90.7507 308.113 90.7013 308.261 90.6848C308.409 90.6684 308.541 90.7178 308.656 90.8165C308.788 90.9318 308.87 91.0799 308.887 91.2281C308.903 91.3762 308.838 91.5079 308.722 91.6231C307.916 92.3639 306.928 92.7261 305.726 92.7261Z" fill="#333333"/>
<path d="M312.029 83.9639V81.4356C312.029 81.2381 312.068 81.08 312.187 80.9615C312.305 80.8429 312.463 80.7639 312.621 80.7639C312.819 80.7639 312.977 80.8429 313.096 80.9615C313.214 81.08 313.293 81.2381 313.293 81.4356V83.9639H315.15C315.308 83.9639 315.427 84.0431 315.545 84.1221C315.664 84.2406 315.703 84.3592 315.703 84.5172C315.703 84.6752 315.664 84.8333 315.545 84.9123C315.427 85.0308 315.308 85.0705 315.15 85.0705H313.293V89.4557C313.293 90.0483 313.451 90.4829 313.767 90.8385C314.123 91.1941 314.518 91.3918 315.031 91.3918H315.506C315.664 91.3918 315.822 91.431 315.901 91.5496C316.019 91.6681 316.098 91.8262 316.098 92.0237C316.098 92.2213 316.019 92.3792 315.901 92.4582C315.743 92.5767 315.584 92.6557 315.387 92.6557H315.031C314.478 92.6557 313.926 92.4978 313.491 92.2213C313.017 91.9447 312.661 91.5892 312.424 91.1151C312.147 90.641 312.029 90.0879 312.029 89.4557V85.0705H310.962C310.765 85.0705 310.646 85.0308 310.528 84.9123C310.409 84.8333 310.37 84.6752 310.37 84.5172C310.37 84.3592 310.409 84.2406 310.528 84.1221C310.646 84.0431 310.765 83.9639 310.962 83.9639H312.029Z" fill="#333333"/>
<path d="M325.069 91.4281C324.752 91.7836 324.397 92.06 324.002 92.2576C323.409 92.5737 322.777 92.7318 322.066 92.7318C321.276 92.7318 320.564 92.5737 319.972 92.2576C319.34 91.9415 318.866 91.4676 318.51 90.8354C318.155 90.2033 317.957 89.4527 317.957 88.5441V84.2772C317.957 84.0797 318.036 83.9611 318.155 83.8031C318.273 83.6845 318.431 83.6449 318.589 83.6449C318.787 83.6449 318.945 83.6845 319.064 83.8031C319.182 83.9611 319.261 84.0797 319.261 84.2772V88.5441C319.261 89.2157 319.38 89.7687 319.617 90.2428C319.893 90.6774 320.249 90.9935 320.683 91.2305C321.118 91.4281 321.632 91.5465 322.185 91.5465C322.738 91.5465 323.212 91.4281 323.646 91.2305C324.081 91.033 324.436 90.7168 324.673 90.3613C324.91 90.0057 325.069 89.6108 325.069 89.1367V84.2772C325.069 84.0797 325.108 83.9216 325.227 83.8031C325.345 83.6845 325.503 83.6449 325.661 83.6449C325.859 83.6449 326.017 83.6845 326.136 83.8031C326.254 83.9216 326.333 84.0797 326.333 84.2772V92.0207C326.333 92.2182 326.254 92.3761 326.136 92.4551C326.017 92.5737 325.859 92.6527 325.661 92.6527C325.503 92.6527 325.345 92.5737 325.227 92.4551C325.108 92.3761 325.069 92.2182 325.069 92.0207V91.4281Z" fill="#333333"/>
<path d="M330.518 84.9968C330.834 84.6017 331.189 84.2461 331.624 84.0091C332.138 83.693 332.73 83.5349 333.363 83.5349C333.837 83.5349 334.232 83.6137 334.508 83.7718C334.785 83.8903 334.904 84.1276 334.825 84.4041C334.785 84.5622 334.706 84.6806 334.627 84.7201C334.509 84.7596 334.39 84.7992 334.232 84.7992C334.074 84.7597 333.916 84.7595 333.718 84.7595C333.126 84.6805 332.573 84.7595 332.099 84.957C331.625 85.1151 331.229 85.3918 330.953 85.7869C330.676 86.1425 330.518 86.577 330.518 87.0906V92.0291C330.518 92.2267 330.479 92.3848 330.36 92.5033C330.242 92.5823 330.123 92.6611 329.926 92.6611C329.728 92.6611 329.57 92.5823 329.451 92.5033C329.333 92.3848 329.294 92.2267 329.294 92.0291V84.2857C329.294 84.0882 329.333 83.93 329.451 83.8115C329.57 83.693 329.728 83.6533 329.926 83.6533C330.123 83.6533 330.242 83.693 330.36 83.8115C330.479 83.93 330.518 84.0882 330.518 84.2857V84.9968Z" fill="#333333"/>
<path d="M337.72 92.6371C337.523 92.6371 337.374 92.5713 337.259 92.456C337.144 92.3408 337.078 92.1926 337.078 91.9951V84.2746C337.078 84.077 337.144 83.9124 337.259 83.7972C337.374 83.6819 337.523 83.6325 337.72 83.6325C337.901 83.6325 338.066 83.6819 338.181 83.7972C338.296 83.9124 338.346 84.077 338.346 84.2746V91.9951C338.346 92.1926 338.296 92.3408 338.181 92.456C338.066 92.5713 337.901 92.6371 337.72 92.6371ZM337.704 81.9205C337.457 81.9205 337.259 81.8382 337.078 81.6571C336.897 81.4761 336.815 81.2621 336.815 81.0151C336.815 80.7353 336.897 80.5213 337.095 80.3567C337.259 80.2085 337.473 80.1262 337.72 80.1262C337.951 80.1262 338.148 80.2085 338.346 80.3567C338.527 80.5213 338.609 80.7353 338.609 81.0151C338.609 81.2621 338.527 81.4761 338.346 81.6571C338.165 81.8382 337.951 81.9205 337.704 81.9205Z" fill="#333333"/>
<path d="M342.851 84.8386C343.167 84.5225 343.484 84.2461 343.918 84.0091C344.471 83.693 345.142 83.5349 345.854 83.5349C346.644 83.5349 347.316 83.6928 347.948 84.0484C348.54 84.3645 349.054 84.8388 349.409 85.4709C349.765 86.1031 349.923 86.8536 349.923 87.7623V92.0291C349.923 92.1872 349.884 92.3451 349.765 92.4636C349.647 92.5821 349.489 92.6611 349.291 92.6611C349.133 92.6611 348.975 92.5821 348.857 92.4636C348.738 92.3451 348.659 92.1872 348.659 92.0291V87.7623C348.659 87.0512 348.541 86.4982 348.264 86.0636C348.027 85.629 347.671 85.3129 347.236 85.0759C346.762 84.8783 346.289 84.7595 345.736 84.7595C345.182 84.7595 344.708 84.8388 344.273 85.0759C343.839 85.2734 343.483 85.5498 343.246 85.9054C342.97 86.3005 342.851 86.6956 342.851 87.1697V92.0291C342.851 92.2267 342.811 92.3846 342.693 92.4636C342.574 92.5821 342.417 92.6611 342.219 92.6611C342.022 92.6611 341.864 92.5821 341.745 92.4636C341.627 92.3846 341.587 92.2267 341.587 92.0291V84.2857C341.587 84.0882 341.627 83.93 341.745 83.8115C341.864 83.693 342.022 83.6533 342.219 83.6533C342.417 83.6533 342.574 83.693 342.693 83.8115C342.811 83.93 342.851 84.0882 342.851 84.2857V84.8386Z" fill="#333333"/>
<path d="M361.419 88.1401V91.4983C361.419 92.407 361.221 93.197 360.826 93.9082C360.431 94.6193 359.878 95.1725 359.206 95.5676C358.535 96.0022 357.745 96.1996 356.875 96.1996C356.006 96.1996 355.216 96.0418 354.584 95.7258C353.913 95.3702 353.359 94.9354 352.925 94.3823C352.806 94.2638 352.767 94.1059 352.806 93.9479C352.806 93.7899 352.885 93.6712 353.043 93.5922C353.162 93.4736 353.32 93.4342 353.517 93.4737C353.675 93.5132 353.833 93.5921 353.912 93.7106C354.228 94.1057 354.623 94.4219 355.137 94.659C355.65 94.9355 356.204 95.054 356.875 95.054C357.507 95.054 358.061 94.8959 358.535 94.5799C359.049 94.3033 359.444 93.8689 359.72 93.3553C359.997 92.8022 360.155 92.1697 360.155 91.4586V90.7081C359.799 91.3403 359.325 91.8145 358.733 92.17C358.14 92.5256 357.468 92.7229 356.678 92.7229C355.848 92.7229 355.058 92.5254 354.387 92.1303C353.715 91.7352 353.202 91.2218 352.806 90.5106C352.451 89.839 352.253 89.0488 352.253 88.1401C352.253 87.2314 352.451 86.4413 352.846 85.7696C353.241 85.0585 353.794 84.5051 354.465 84.1496C355.177 83.7545 355.967 83.5569 356.836 83.5569C357.705 83.5569 358.495 83.7545 359.206 84.1496C359.878 84.5051 360.431 85.0585 360.787 85.7696C361.182 86.4413 361.379 87.2314 361.419 88.1401ZM356.836 91.5774C357.468 91.5774 358.061 91.4191 358.535 91.1426C359.049 90.8265 359.444 90.4316 359.72 89.918C359.997 89.4044 360.155 88.8118 360.155 88.1401C360.155 87.4685 359.997 86.8758 359.72 86.3622C359.444 85.8486 359.049 85.4138 358.535 85.1373C358.061 84.8607 357.468 84.7028 356.836 84.7028C356.164 84.7028 355.611 84.8607 355.097 85.1373C354.584 85.4138 354.189 85.8486 353.912 86.3622C353.636 86.8758 353.478 87.4685 353.478 88.1401C353.478 88.8118 353.636 89.4044 353.912 89.918C354.189 90.4316 354.584 90.8265 355.097 91.1426C355.611 91.4191 356.164 91.5774 356.836 91.5774Z" fill="#333333"/>
<path d="M70.1193 34.1048C70.1193 29.6407 72.9434 27.4327 78.6872 27.4327H81.942V39.3848H70.1193V34.1048ZM53.7495 27.4327H66.7209V51.3368H53.7495V27.4327Z" fill="#00C4FE"/>
<path d="M104.398 27.4327H117.322V51.3368H115.838C111.77 51.3368 108.85 50.6168 107.079 49.2248C105.308 47.7848 104.398 45.3848 104.398 42.0728V27.4327ZM87.502 39.6728C87.502 37.9448 87.7413 36.3608 88.2199 34.8728C88.6507 33.3848 89.3687 32.0887 90.326 30.9847C92.3842 28.6327 95.304 27.4327 99.1332 27.4327H100.952V51.3368H99.7075C95.7826 51.3368 92.7671 50.2808 90.6132 48.1208C88.555 46.0568 87.502 43.2248 87.502 39.6728Z" fill="#00C4FE"/>
<path d="M176.151 27.4327H177.97C181.799 27.4327 184.719 28.6327 186.777 30.9847C188.644 33.1448 189.553 36.0248 189.553 39.5768C189.553 43.1768 188.548 46.0568 186.49 48.1208C184.336 50.2808 181.272 51.3368 177.347 51.3368H176.151V27.4327ZM158.967 39.6728C158.967 37.9448 159.159 36.3608 159.637 34.8728C160.068 33.3848 160.786 32.0887 161.743 30.9847C163.802 28.6327 166.721 27.4327 170.551 27.4327H172.369V51.3368H171.173C167.248 51.3368 164.185 50.2808 162.031 48.1208C159.972 46.0568 158.967 43.2248 158.967 39.6728Z" fill="#00C4FE"/>
<path d="M140.522 27.4327H153.001V52.1935C153.001 53.863 152.901 55.3699 152.698 56.7291C152.496 58.0883 152.067 59.2554 151.413 60.2305C150.042 62.2545 147.464 63.2739 143.678 63.2739H140.522V27.4327ZM136.665 55.237V63.2739H133.511C129.723 63.2739 127.145 62.2545 125.774 60.2305C125.119 59.2554 124.691 58.0883 124.489 56.7291C124.417 56.2563 124.358 55.7541 124.312 55.237H136.665ZM123.226 39.6802C123.226 37.9517 123.453 36.3561 123.904 34.8788C124.356 33.4014 125.058 32.116 126.008 31.008C128.064 28.6294 131.009 27.4327 134.843 27.4327H136.641V51.3515H135.426C131.5 51.3515 128.462 50.273 126.311 48.116C124.255 46.0477 123.226 43.2407 123.226 39.6802Z" fill="#00C4FE"/>
<path d="M239.397 51.3355C231.691 51.3355 227.814 47.7834 227.814 40.7274V27.5753L237.722 21.0953H241.216V51.3355H239.397ZM244.615 27.4313H255.815V35.3034H244.615V27.4313ZM244.662 41.3514H257.634V43.3674C257.634 46.0554 256.82 48.0234 255.193 49.2714C253.422 50.6635 250.598 51.3355 246.673 51.3355H244.662V41.3514Z" fill="#00C4FE"/>
<path d="M279.847 34.1048C279.847 29.6407 282.671 27.4327 288.415 27.4327H291.67V39.3848H279.847V34.1048ZM263.478 27.4327H276.449V51.3368H263.478V27.4327Z" fill="#00C4FE"/>
<path d="M314.474 27.4327H316.293C320.122 27.4327 323.042 28.6327 325.1 30.9847C326.967 33.1448 327.876 36.0248 327.876 39.5768C327.876 43.1768 326.871 46.0568 324.813 48.1208C322.659 50.2808 319.596 51.3368 315.671 51.3368H314.474V27.4327ZM297.291 39.6728C297.291 37.9448 297.482 36.3608 297.961 34.8728C298.391 33.3848 299.109 32.0887 300.067 30.9847C302.125 28.6327 305.045 27.4327 308.874 27.4327H310.693V51.3368H309.496C305.571 51.3368 302.508 50.2808 300.354 48.1208C298.296 46.0568 297.291 43.2248 297.291 39.6728Z" fill="#00C4FE"/>
<path d="M333.507 27.4261H346.081V51.4778C346.081 55.2599 345.301 58.1112 343.743 60.017C341.966 62.1888 339.153 63.2673 335.305 63.2673H333.507V27.4261ZM346.081 17.2618H333.538V23.8065H346.081V17.2618Z" fill="#00C4FE"/>
<path fill-rule="evenodd" clip-rule="evenodd" d="M28.4889 27.4327V59.2849H26.4515C25.2817 59.2849 24.1709 59.2112 23.119 59.0782C20.4289 58.6645 18.2206 57.6599 16.4999 56.0496C16.2952 55.8723 16.1007 55.6654 15.915 55.4733V31.2739C16.0653 31.1114 16.22 30.9489 16.382 30.7864C18.6729 28.5556 22.132 27.4327 26.7593 27.4327H28.4889ZM32.6949 27.4327H34.4098C39.0003 27.4327 42.4314 28.5556 44.7031 30.7864C46.7892 32.84 47.8322 35.7355 47.8322 39.4881C47.8322 42.8122 46.7508 45.4863 44.5882 47.5251C42.2841 49.682 39.1093 50.7606 35.0595 50.7606H32.6949V27.4327Z" fill="#00C4FE"/>
<path d="M195.733 36.213C195.542 35.637 195.398 34.245 195.446 33.525C195.494 32.853 195.59 32.133 195.925 31.317C196.212 30.501 196.643 29.781 197.313 29.157C198.701 27.861 200.903 27.189 203.822 27.189L221.197 42.5011C221.341 43.0771 221.389 43.7971 221.389 44.7571C221.389 45.6691 221.245 46.5331 220.958 47.3971C220.623 48.2131 220.144 48.9331 219.426 49.5571C217.991 50.9011 215.837 51.5731 213.06 51.5731L195.733 36.213ZM221.58 27.429C222.059 28.149 222.298 29.109 222.298 30.357C222.298 32.709 221.389 34.437 219.666 35.541L210.332 27.429H221.58ZM195.111 51.3331C194.632 50.6131 194.393 49.6531 194.393 48.3571C194.393 46.1011 195.255 44.3731 196.978 43.2211L206.359 51.3331H195.111Z" fill="#00C4FE"/>
</svg>
