<svg width="140" height="140" viewBox="0 0 140 140" fill="none" xmlns="http://www.w3.org/2000/svg">
<g clip-path="url(#clip0_190_2367)">
<path fill-rule="evenodd" clip-rule="evenodd" d="M76.5602 5.14407H20.0537C19.6625 5.14407 19.3457 5.4608 19.3457 5.85201V138.065C19.3457 138.456 19.6625 138.773 20.0537 138.773H22.4287L23.4286 139.774H25.3776L26.3795 138.773H112.742L113.745 139.774H115.691L116.694 138.773H118.967C119.355 138.773 119.672 138.456 119.672 138.065V30.0721H79.5389C78.7496 30.0721 77.992 29.7583 77.433 29.2003C76.874 28.6413 76.5602 27.8837 76.5602 27.0934V5.14407ZM110.567 41.7735C110.567 41.2255 110.121 40.7806 109.574 40.7806H29.4486C28.9005 40.7806 28.4556 41.2255 28.4556 41.7735V122.22C28.4556 122.768 28.9005 123.213 29.4486 123.213H109.574C110.121 123.213 110.567 122.768 110.567 122.22V41.7735Z" fill="#00C4FE"/>
<path fill-rule="evenodd" clip-rule="evenodd" d="M84.2839 3.77306L86.1903 -3.8147e-06H112.78L113.138 0.442834L89.4471 3.77306H96.586L113.773 1.35731L114.131 3.77306H118.976C119.363 3.77306 119.671 4.08483 119.671 4.47008V27.3914C119.671 27.7767 119.363 28.0904 118.976 28.0904H79.2498C78.8626 28.0904 78.5449 27.7767 78.5449 27.3914V4.47008C78.5449 4.08483 78.8626 3.77306 79.2498 3.77306H84.2839ZM111.321 6.75179C111.321 6.20371 110.874 5.75888 110.328 5.75888C105.79 5.75888 87.0641 5.75888 82.5265 5.75888C81.9705 5.75888 81.5336 6.20371 81.5336 6.75179C81.5336 10.2051 81.5336 21.6673 81.5336 25.1206C81.5336 25.6687 81.9705 26.1136 82.5265 26.1136C87.0641 26.1136 105.79 26.1136 110.328 26.1136C110.874 26.1136 111.321 25.6687 111.321 25.1206C111.321 21.6673 111.321 10.2051 111.321 6.75179ZM115.005 5.75888C116.434 5.75888 117.586 6.91563 117.586 8.34046C117.586 9.76528 116.434 10.922 115.005 10.922C113.585 10.922 112.423 9.76528 112.423 8.34046C112.423 6.91563 113.585 5.75888 115.005 5.75888ZM115.005 6.75179C115.888 6.75179 116.593 7.46372 116.593 8.34046C116.593 9.2172 115.888 9.92911 115.005 9.92911C114.131 9.92911 113.416 9.2172 113.416 8.34046C113.416 7.46372 114.131 6.75179 115.005 6.75179ZM103.695 3.77306H112.393L112.572 2.52597L103.695 3.77306ZM86.5676 3.20511L87.1534 0.992907H102.047L86.5676 3.20511Z" fill="#00C4FE"/>
<path fill-rule="evenodd" clip-rule="evenodd" d="M30.9109 42.7673L35.0215 72.0215L35.4684 71.664V112.786C35.4684 114.666 36.9874 116.192 38.874 116.192H100.176C102.053 116.192 103.582 114.666 103.582 112.786V51.2081C103.582 49.3285 102.053 47.8034 100.176 47.8034H38.874C36.9874 47.8034 35.4684 49.3285 35.4684 51.2081V45.0679L30.9109 42.7673H108.596V121.228H30.4541V73.1901L34.1081 72.652L30.4541 46.6586V42.7673H30.9109ZM31.308 71.2212L32.9364 71.4535L31.308 59.8593V71.2212ZM32.2613 45.4442L34.4754 46.037V60.9297L32.2613 45.4442Z" fill="#00C4FE"/>
</g>
<defs>
<clipPath id="clip0_190_2367">
<rect width="140" height="140" fill="white"/>
</clipPath>
</defs>
</svg>
