<?xml version="1.0" encoding="UTF-8" standalone="no"?>
<!DOCTYPE svg PUBLIC "-//W3C//DTD SVG 1.1//EN" "http://www.w3.org/Graphics/SVG/1.1/DTD/svg11.dtd">
<svg width="100%" height="100%" viewBox="0 0 295 31" version="1.1" xmlns="http://www.w3.org/2000/svg" xmlns:xlink="http://www.w3.org/1999/xlink" xml:space="preserve" xmlns:serif="http://www.serif.com/" style="fill-rule:evenodd;clip-rule:evenodd;stroke-linejoin:round;stroke-miterlimit:2;">
    <g transform="matrix(1,0,0,1,-37.0946,-81.9845)">
        <g transform="matrix(0.242598,0,0,0.293815,-24.0499,-4.18579)">
            <g transform="matrix(1.29114,0,0,1.0359,124.05,283.232)">
                <g transform="matrix(3.89426,-1.824e-37,0,4.00768,-38.3525,-795.869)">
                    <path d="M63.577,210.901C63.577,208.579 65.05,207.43 68.046,207.43L69.744,207.43L69.744,213.647L63.577,213.647L63.577,210.901ZM55.039,207.43L61.805,207.43L61.805,219.864L55.039,219.864L55.039,207.43Z" style="fill:white;"/>
                </g>
                <g transform="matrix(3.89426,-1.824e-37,0,4.00768,-38.3525,-795.869)">
                    <path d="M81.456,207.43L88.197,207.43L88.197,219.864L87.423,219.864C85.301,219.864 83.778,219.489 82.854,218.765C81.931,218.016 81.456,216.768 81.456,215.045L81.456,207.43ZM72.643,213.797C72.643,212.898 72.768,212.074 73.017,211.3C73.242,210.526 73.617,209.852 74.116,209.278C75.189,208.055 76.712,207.43 78.71,207.43L79.658,207.43L79.658,219.864L79.009,219.864C76.962,219.864 75.389,219.315 74.266,218.191C73.192,217.118 72.643,215.645 72.643,213.797Z" style="fill:white;"/>
                </g>
                <g transform="matrix(3.89426,-1.824e-37,0,4.00768,-38.3525,-795.869)">
                    <path d="M118.885,207.43L119.834,207.43C121.832,207.43 123.355,208.055 124.428,209.278C125.402,210.401 125.876,211.899 125.876,213.747C125.876,215.62 125.352,217.118 124.278,218.191C123.155,219.315 121.557,219.864 119.51,219.864L118.885,219.864L118.885,207.43ZM109.922,213.797C109.922,212.898 110.022,212.074 110.272,211.3C110.497,210.526 110.871,209.852 111.37,209.278C112.444,208.055 113.967,207.43 115.964,207.43L116.913,207.43L116.913,219.864L116.289,219.864C114.242,219.864 112.644,219.315 111.52,218.191C110.447,217.118 109.922,215.645 109.922,213.797Z" style="fill:white;"/>
                </g>
                <g transform="matrix(3.89426,-1.824e-37,0,4.00768,-38.3525,-771.005)">
                    <path d="M100.301,201.224L106.811,201.224L106.811,214.103C106.811,214.971 106.758,215.755 106.652,216.462C106.547,217.169 106.323,217.776 105.982,218.283C105.267,219.336 103.922,219.866 101.947,219.866L100.301,219.866L100.301,201.224ZM98.289,215.686L98.289,219.866L96.644,219.866C94.668,219.866 93.324,219.336 92.608,218.283C92.267,217.776 92.043,217.169 91.938,216.462C91.9,216.216 91.87,215.955 91.846,215.686L98.289,215.686ZM91.279,207.594C91.279,206.695 91.398,205.865 91.633,205.097C91.869,204.328 92.235,203.66 92.73,203.083C93.803,201.846 95.339,201.224 97.339,201.224L98.277,201.224L98.277,213.665L97.643,213.665C95.595,213.665 94.011,213.104 92.888,211.982C91.816,210.906 91.279,209.446 91.279,207.594Z" style="fill:white;"/>
                </g>
                <g transform="matrix(3.89426,-1.824e-37,0,4.00768,-38.3525,-795.865)">
                    <path d="M129.099,211.998C128.999,211.699 128.925,210.975 128.95,210.6C128.974,210.251 129.024,209.876 129.199,209.452C129.349,209.027 129.574,208.653 129.923,208.328C130.647,207.654 131.796,207.305 133.319,207.305L142.382,215.269C142.457,215.569 142.482,215.943 142.482,216.442C142.482,216.917 142.407,217.366 142.257,217.816C142.082,218.24 141.833,218.615 141.458,218.939C140.709,219.638 139.586,219.988 138.137,219.988L129.099,211.998ZM142.582,207.429C142.831,207.804 142.956,208.303 142.956,208.952C142.956,210.176 142.482,211.075 141.583,211.649L136.714,207.429L142.582,207.429ZM128.775,219.863C128.525,219.488 128.4,218.989 128.4,218.315C128.4,217.142 128.85,216.243 129.748,215.644L134.642,219.863L128.775,219.863Z" style="fill:white;"/>
                </g>
                <g transform="matrix(3.89426,-1.824e-37,0,4.00768,-38.3525,-809.074)">
                    <path d="M151.875,223.159C147.855,223.159 145.833,221.311 145.833,217.641L145.833,210.8L151.001,207.43L152.824,207.43L152.824,223.159L151.875,223.159ZM154.597,210.725L160.439,210.725L160.439,214.82L154.597,214.82L154.597,210.725ZM154.622,217.966L161.388,217.966L161.388,219.014C161.388,220.413 160.963,221.436 160.114,222.085C159.191,222.809 157.717,223.159 155.67,223.159L154.622,223.159L154.622,217.966Z" style="fill:white;"/>
                </g>
                <g transform="matrix(3.89426,-1.824e-37,0,4.00768,-38.3525,-795.869)">
                    <path d="M172.976,210.901C172.976,208.579 174.449,207.43 177.445,207.43L179.143,207.43L179.143,213.647L172.976,213.647L172.976,210.901ZM164.437,207.43L171.203,207.43L171.203,219.864L164.437,219.864L164.437,207.43Z" style="fill:white;"/>
                </g>
                <g transform="matrix(3.89426,-1.824e-37,0,4.00768,-38.3525,-795.869)">
                    <path d="M191.036,207.43L191.984,207.43C193.982,207.43 195.505,208.055 196.578,209.278C197.552,210.401 198.027,211.899 198.027,213.747C198.027,215.62 197.502,217.118 196.429,218.191C195.305,219.315 193.707,219.864 191.66,219.864L191.036,219.864L191.036,207.43ZM182.073,213.797C182.073,212.898 182.172,212.074 182.422,211.3C182.647,210.526 183.021,209.852 183.521,209.278C184.594,208.055 186.117,207.43 188.115,207.43L189.063,207.43L189.063,219.864L188.439,219.864C186.392,219.864 184.794,219.315 183.67,218.191C182.597,217.118 182.073,215.645 182.073,213.797Z" style="fill:white;"/>
                </g>
                <g transform="matrix(3.89426,-1.824e-37,0,4.00768,-38.3525,-792.194)">
                    <path d="M200.964,206.511L207.523,206.511L207.523,219.021C207.523,220.988 207.116,222.471 206.303,223.463C205.376,224.592 203.91,225.153 201.902,225.153L200.964,225.153L200.964,206.511ZM200.98,204.628L207.523,204.628L207.523,201.224L200.98,201.224L200.98,204.628Z" style="fill:white;"/>
                </g>
                <g transform="matrix(3.89426,-1.824e-37,0,4.00768,-38.3525,-779.321)">
                    <path d="M41.862,203.299L41.862,219.866L40.799,219.866C40.189,219.866 39.61,219.828 39.061,219.759C37.658,219.544 36.506,219.021 35.609,218.184C35.502,218.091 35.4,217.984 35.304,217.884L35.304,205.297C35.382,205.212 35.463,205.128 35.547,205.043C36.742,203.883 38.546,203.299 40.96,203.299L41.862,203.299ZM44.056,203.299L44.951,203.299C47.345,203.299 49.135,203.883 50.32,205.043C51.408,206.111 51.952,207.617 51.952,209.569C51.952,211.298 51.388,212.689 50.26,213.75C49.058,214.872 47.402,215.432 45.29,215.432L44.056,215.432L44.056,203.299Z" style="fill:white;"/>
                </g>
            </g>
            <g transform="matrix(1.94655,0,0,1.75637,603.71,-682.334)">
                <path d="M314.014,602.038C310.584,602.038 307.376,601.437 304.39,600.236C301.404,599.035 298.778,597.358 296.512,595.207C294.246,593.056 292.478,590.576 291.208,587.766C289.937,584.956 289.302,581.943 289.302,578.726C289.302,575.548 289.926,572.554 291.176,569.745C292.425,566.935 294.183,564.464 296.449,562.332C298.714,560.201 301.34,558.525 304.326,557.304C307.312,556.083 310.541,555.473 314.014,555.473C317.064,555.473 319.838,555.88 322.337,556.693C324.835,557.507 327.249,558.806 329.579,560.588C329.96,560.86 330.182,561.179 330.246,561.548C330.309,561.916 330.256,562.265 330.087,562.594C329.918,562.923 329.664,563.166 329.325,563.321C329.24,563.631 329.028,563.863 328.689,564.018C328.351,564.173 327.959,564.232 327.514,564.193C327.069,564.154 326.635,563.98 326.212,563.67C324.56,562.352 322.76,561.373 320.812,560.734C318.864,560.094 316.598,559.775 314.014,559.775C311.261,559.775 308.688,560.278 306.296,561.286C303.903,562.294 301.796,563.67 299.974,565.414C298.153,567.158 296.724,569.173 295.686,571.46C294.649,573.746 294.13,576.168 294.13,578.726C294.13,581.362 294.649,583.823 295.686,586.109C296.724,588.396 298.153,590.411 299.974,592.155C301.796,593.899 303.903,595.265 306.296,596.254C308.688,597.242 311.261,597.736 314.014,597.736C316.344,597.736 318.546,597.387 320.621,596.69C322.697,595.992 324.666,594.985 326.529,593.667C327.038,593.279 327.578,593.124 328.149,593.202C328.721,593.279 329.219,593.512 329.642,593.899C330.066,594.287 330.278,594.791 330.278,595.411C330.278,595.721 330.225,596.002 330.119,596.254C330.013,596.506 329.833,596.767 329.579,597.039C327.419,598.86 325.005,600.149 322.337,600.905C319.668,601.66 316.894,602.038 314.014,602.038Z" style="fill:white;fill-rule:nonzero;"/>
                <path d="M355.181,601.806C352.174,601.806 349.484,601.234 347.113,600.091C344.741,598.947 342.867,597.271 341.49,595.062C340.114,592.853 339.426,590.159 339.426,586.981L339.426,571.866C339.426,571.246 339.659,570.723 340.125,570.297C340.59,569.871 341.162,569.657 341.84,569.657C342.56,569.657 343.153,569.871 343.619,570.297C344.084,570.723 344.317,571.246 344.317,571.866L344.317,586.981C344.317,589.384 344.815,591.361 345.81,592.911C346.806,594.461 348.161,595.624 349.876,596.399C351.591,597.174 353.529,597.562 355.689,597.562C357.764,597.562 359.638,597.194 361.311,596.457C362.984,595.721 364.308,594.713 365.282,593.434C366.256,592.155 366.743,590.702 366.743,589.074L370.237,589.074C370.11,591.516 369.379,593.696 368.045,595.614C366.711,597.533 364.922,599.044 362.677,600.149C360.433,601.253 357.934,601.806 355.181,601.806ZM369.157,601.457C368.437,601.457 367.855,601.253 367.41,600.846C366.965,600.439 366.743,599.887 366.743,599.19L366.743,571.866C366.743,571.208 366.965,570.675 367.41,570.268C367.855,569.861 368.437,569.657 369.157,569.657C369.877,569.657 370.47,569.861 370.936,570.268C371.402,570.675 371.635,571.208 371.635,571.866L371.635,599.19C371.635,599.887 371.402,600.439 370.936,600.846C370.47,601.253 369.877,601.457 369.157,601.457Z" style="fill:white;fill-rule:nonzero;"/>
                <path d="M385.103,581.866C385.23,579.463 385.918,577.312 387.167,575.413C388.417,573.514 390.047,572.021 392.059,570.936C394.071,569.851 396.305,569.309 398.761,569.309C400.71,569.309 402.213,569.56 403.272,570.064C404.331,570.568 404.733,571.304 404.479,572.273C404.31,572.855 404.024,573.242 403.621,573.436C403.219,573.63 402.732,573.707 402.16,573.669C401.588,573.63 400.943,573.591 400.223,573.552C397.851,573.359 395.744,573.581 393.901,574.221C392.059,574.86 390.598,575.839 389.518,577.157C388.438,578.474 387.898,580.044 387.898,581.866L385.103,581.866ZM385.484,601.457C384.722,601.457 384.129,601.263 383.705,600.875C383.282,600.488 383.07,599.945 383.07,599.248L383.07,571.866C383.07,571.169 383.282,570.626 383.705,570.239C384.129,569.851 384.722,569.657 385.484,569.657C386.246,569.657 386.839,569.851 387.263,570.239C387.686,570.626 387.898,571.169 387.898,571.866L387.898,599.248C387.898,599.945 387.686,600.488 387.263,600.875C386.839,601.263 386.246,601.457 385.484,601.457Z" style="fill:white;fill-rule:nonzero;"/>
                <path d="M424.935,601.747C421.674,601.747 418.752,601.04 416.168,599.626C413.585,598.211 411.541,596.283 410.038,593.841C408.534,591.4 407.782,588.648 407.782,585.586C407.782,582.486 408.555,579.715 410.101,577.273C411.647,574.831 413.754,572.903 416.422,571.489C419.091,570.074 422.098,569.367 425.443,569.367C428.789,569.367 431.786,570.074 434.433,571.489C437.08,572.903 439.176,574.831 440.722,577.273C442.268,579.715 443.062,582.486 443.104,585.586L441.135,586.981C441.135,589.772 440.426,592.281 439.007,594.51C437.588,596.738 435.661,598.502 433.226,599.8C430.79,601.098 428.027,601.747 424.935,601.747ZM425.443,597.678C427.9,597.678 430.092,597.155 432.019,596.108C433.946,595.062 435.47,593.618 436.593,591.777C437.715,589.937 438.276,587.873 438.276,585.586C438.276,583.261 437.715,581.187 436.593,579.366C435.47,577.544 433.946,576.101 432.019,575.035C430.092,573.969 427.9,573.436 425.443,573.436C423.029,573.436 420.848,573.969 418.9,575.035C416.952,576.101 415.406,577.544 414.262,579.366C413.119,581.187 412.547,583.261 412.547,585.586C412.547,587.873 413.119,589.937 414.262,591.777C415.406,593.618 416.952,595.062 418.9,596.108C420.848,597.155 423.029,597.678 425.443,597.678ZM440.627,601.457C439.907,601.457 439.314,601.253 438.848,600.846C438.382,600.439 438.149,599.907 438.149,599.248L438.149,589.307L439.356,584.714L443.104,585.586L443.104,599.248C443.104,599.907 442.871,600.439 442.406,600.846C441.94,601.253 441.347,601.457 440.627,601.457Z" style="fill:white;fill-rule:nonzero;"/>
            </g>
        </g>
    </g>
</svg>
