<?xml version="1.0" encoding="UTF-8" standalone="no"?>
<!DOCTYPE svg PUBLIC "-//W3C//DTD SVG 1.1//EN" "http://www.w3.org/Graphics/SVG/1.1/DTD/svg11.dtd">
<svg width="100%" height="100%" viewBox="0 0 140 140" version="1.1" xmlns="http://www.w3.org/2000/svg" xmlns:xlink="http://www.w3.org/1999/xlink" xml:space="preserve" xmlns:serif="http://www.serif.com/" style="fill-rule:evenodd;clip-rule:evenodd;stroke-linejoin:round;stroke-miterlimit:2;">
    <g>
        <path d="M76.56,5.144L20.054,5.144C19.663,5.144 19.346,5.461 19.346,5.852L19.346,138.065C19.346,138.456 19.663,138.773 20.054,138.773L22.429,138.773L23.429,139.774L25.378,139.774L26.38,138.773L112.742,138.773L113.745,139.774L115.691,139.774L116.694,138.773L118.968,138.773C119.355,138.773 119.673,138.456 119.673,138.065L119.673,30.072L79.539,30.072C78.75,30.072 77.992,29.758 77.433,29.2C76.874,28.641 76.56,27.884 76.56,27.093L76.56,5.144ZM110.568,41.774C110.568,41.225 110.121,40.781 109.575,40.781L29.449,40.781C28.901,40.781 28.456,41.225 28.456,41.774L28.456,122.22C28.456,122.768 28.901,123.213 29.449,123.213L109.575,123.213C110.121,123.213 110.568,122.768 110.568,122.22L110.568,41.774Z" style="fill:rgb(0,196,254);"/>
        <path d="M84.284,3.773L86.19,0L112.781,0L113.138,0.443L89.447,3.773L96.586,3.773L113.774,1.357L114.131,3.773L118.976,3.773C119.364,3.773 119.671,4.085 119.671,4.47L119.671,27.391C119.671,27.777 119.364,28.09 118.976,28.09L79.25,28.09C78.863,28.09 78.545,27.777 78.545,27.391L78.545,4.47C78.545,4.085 78.863,3.773 79.25,3.773L84.284,3.773ZM111.321,6.752C111.321,6.204 110.874,5.759 110.328,5.759L82.527,5.759C81.971,5.759 81.534,6.204 81.534,6.752L81.534,25.121C81.534,25.669 81.971,26.114 82.527,26.114L110.328,26.114C110.874,26.114 111.321,25.669 111.321,25.121L111.321,6.752ZM115.005,5.759C116.434,5.759 117.586,6.916 117.586,8.34C117.586,9.765 116.434,10.922 115.005,10.922C113.585,10.922 112.423,9.765 112.423,8.34C112.423,6.916 113.585,5.759 115.005,5.759ZM115.005,6.752C115.888,6.752 116.593,7.464 116.593,8.34C116.593,9.217 115.888,9.929 115.005,9.929C114.131,9.929 113.416,9.217 113.416,8.34C113.416,7.464 114.131,6.752 115.005,6.752ZM103.695,3.773L112.393,3.773L112.572,2.526L103.695,3.773ZM86.568,3.205L87.153,0.993L102.047,0.993L86.568,3.205Z" style="fill:rgb(0,196,254);"/>
        <path d="M30.911,42.767L35.022,72.022L35.468,71.664L35.468,112.786C35.468,114.666 36.987,116.192 38.874,116.192L100.176,116.192C102.053,116.192 103.582,114.666 103.582,112.786L103.582,51.208C103.582,49.329 102.053,47.803 100.176,47.803L38.874,47.803C36.987,47.803 35.468,49.329 35.468,51.208L35.468,45.068L30.911,42.767L108.596,42.767L108.596,121.228L30.454,121.228L30.454,73.19L34.108,72.652L30.454,46.658L30.454,42.767L30.911,42.767ZM31.308,71.221L32.936,71.454L31.308,59.859L31.308,71.221ZM32.261,45.444L34.475,46.037L34.475,60.93L32.261,45.444Z" style="fill:rgb(0,196,254);"/>
        <g transform="matrix(1,0,0,0.992884,53.6307,66.1121)">
            <path d="M16,0C24.831,0 32,7.169 32,16C32,24.831 24.831,32 16,32C7.169,32 0,24.831 0,16C0,7.169 7.169,0 16,0ZM16,4C9.377,4 4,9.377 4,16C4,22.623 9.377,28 16,28C22.623,28 28,22.623 28,16C28,9.377 22.623,4 16,4Z" style="fill:rgb(225,0,0);"/>
        </g>
    </g>
</svg>
