<svg width="140" height="140" viewBox="0 0 140 140" fill="none" xmlns="http://www.w3.org/2000/svg">
<g clip-path="url(#clip0_921_9098)">
<path fill-rule="evenodd" clip-rule="evenodd" d="M76.5603 5.14404H20.0538C19.6626 5.14404 19.3458 5.46078 19.3458 5.85199V138.065C19.3458 138.456 19.6626 138.773 20.0538 138.773H22.4288L23.4287 139.774H25.3778L26.3796 138.773H112.742L113.745 139.774H115.691L116.694 138.773H118.968C119.355 138.773 119.673 138.456 119.673 138.065V30.0721H79.539C78.7497 30.0721 77.9921 29.7583 77.4331 29.2003C76.8741 28.6413 76.5603 27.8837 76.5603 27.0933V5.14404ZM110.568 41.7735C110.568 41.2254 110.121 40.7806 109.575 40.7806H29.4487C28.9006 40.7806 28.4558 41.2254 28.4558 41.7735V122.22C28.4558 122.768 28.9006 123.213 29.4487 123.213H109.575C110.121 123.213 110.568 122.768 110.568 122.22V41.7735Z" fill="#00C4FE"/>
<path fill-rule="evenodd" clip-rule="evenodd" d="M84.284 3.77306L86.1904 0H112.781L113.138 0.442837L89.4472 3.77306H96.5862L113.774 1.35731L114.131 3.77306H118.976C119.364 3.77306 119.671 4.08483 119.671 4.47008V27.3914C119.671 27.7767 119.364 28.0904 118.976 28.0904H79.25C78.8627 28.0904 78.545 27.7767 78.545 27.3914V4.47008C78.545 4.08483 78.8627 3.77306 79.25 3.77306H84.284ZM111.321 6.7518C111.321 6.20371 110.874 5.75889 110.328 5.75889C105.791 5.75889 87.0642 5.75889 82.5266 5.75889C81.9706 5.75889 81.5337 6.20371 81.5337 6.7518C81.5337 10.2051 81.5337 21.6673 81.5337 25.1206C81.5337 25.6687 81.9706 26.1136 82.5266 26.1136C87.0642 26.1136 105.791 26.1136 110.328 26.1136C110.874 26.1136 111.321 25.6687 111.321 25.1206C111.321 21.6673 111.321 10.2051 111.321 6.7518ZM115.005 5.75889C116.434 5.75889 117.586 6.91563 117.586 8.34046C117.586 9.76529 116.434 10.922 115.005 10.922C113.585 10.922 112.423 9.76529 112.423 8.34046C112.423 6.91563 113.585 5.75889 115.005 5.75889ZM115.005 6.7518C115.888 6.7518 116.593 7.46372 116.593 8.34046C116.593 9.2172 115.888 9.92911 115.005 9.92911C114.131 9.92911 113.416 9.2172 113.416 8.34046C113.416 7.46372 114.131 6.7518 115.005 6.7518ZM103.695 3.77306H112.393L112.572 2.52597L103.695 3.77306ZM86.5677 3.20511L87.1535 0.992911H102.047L86.5677 3.20511Z" fill="#00C4FE"/>
<path fill-rule="evenodd" clip-rule="evenodd" d="M30.9109 42.7673L35.0215 72.0215L35.4684 71.664V112.786C35.4684 114.666 36.9874 116.192 38.874 116.192H100.176C102.053 116.192 103.582 114.666 103.582 112.786V51.2081C103.582 49.3285 102.053 47.8034 100.176 47.8034H38.874C36.9874 47.8034 35.4684 49.3285 35.4684 51.2081V45.0679L30.9109 42.7673H108.596V121.228H30.4541V73.1901L34.1081 72.652L30.4541 46.6585V42.7673H30.9109ZM31.308 71.2212L32.9364 71.4535L31.308 59.8593V71.2212ZM32.2613 45.4442L34.4754 46.037V60.9297L32.2613 45.4442Z" fill="#00C4FE"/>
<path d="M56.9124 63V64.4018C56.8318 75.1504 55.4273 71.5317 62.8809 79C55.2916 86.4788 56.9124 82.9819 56.9124 93.5982V95H83.0863V93.5982C83.166 82.8523 84.5791 86.4504 77.1287 79C84.7133 71.543 83.0863 75.0112 83.0863 64.4018V63H56.9124ZM59.716 65.8035H80.2827C80.6656 73.7083 79.7921 72.3502 74.139 78.0034L73.1533 79L74.139 79.9966C80.4525 86.2393 80.2827 84.0838 80.2827 92.1964H59.716C59.332 84.2921 60.2119 85.6435 65.8597 79.9856L66.8453 79L65.8597 78.0144C59.5504 71.7654 59.716 73.9169 59.716 65.8035ZM62.5633 71.564C64.9842 73.6332 68.379 74.5503 69.0904 78.6495H70.4484C70.3915 74.9637 74.5397 73.6157 77.4244 71.564C71.7065 72.1803 69.3744 72.5109 62.5633 71.564V71.564ZM69.9446 83.271C66.2107 83.2475 62.5023 85.1618 62.5743 89.0862H77.4353C77.4381 85.256 73.6785 83.2946 69.9446 83.271Z" fill="#C4C4C4"/>
</g>
<defs>
<clipPath id="clip0_921_9098">
<rect width="140" height="140" fill="white"/>
</clipPath>
</defs>
</svg>
