<svg width="140" height="140" viewBox="0 0 140 140" fill="none" xmlns="http://www.w3.org/2000/svg">
<g clip-path="url(#clip0_911_15234)">
<path fill-rule="evenodd" clip-rule="evenodd" d="M76.5603 5.14404H20.0538C19.6626 5.14404 19.3458 5.46078 19.3458 5.85199V138.065C19.3458 138.456 19.6626 138.773 20.0538 138.773H22.4288L23.4287 139.774H25.3778L26.3796 138.773H112.742L113.745 139.774H115.691L116.694 138.773H118.968C119.355 138.773 119.673 138.456 119.673 138.065V30.0721H79.539C78.7497 30.0721 77.9921 29.7583 77.4331 29.2003C76.8741 28.6413 76.5603 27.8837 76.5603 27.0933V5.14404ZM110.568 41.7735C110.568 41.2254 110.121 40.7806 109.575 40.7806H29.4487C28.9006 40.7806 28.4558 41.2254 28.4558 41.7735V122.22C28.4558 122.768 28.9006 123.213 29.4487 123.213H109.575C110.121 123.213 110.568 122.768 110.568 122.22V41.7735Z" fill="#00C4FE"/>
<path fill-rule="evenodd" clip-rule="evenodd" d="M84.284 3.77306L86.1904 0H112.781L113.138 0.442837L89.4472 3.77306H96.5862L113.774 1.35731L114.131 3.77306H118.976C119.364 3.77306 119.671 4.08483 119.671 4.47008V27.3914C119.671 27.7767 119.364 28.0904 118.976 28.0904H79.25C78.8627 28.0904 78.545 27.7767 78.545 27.3914V4.47008C78.545 4.08483 78.8627 3.77306 79.25 3.77306H84.284ZM111.321 6.7518C111.321 6.20371 110.874 5.75889 110.328 5.75889C105.791 5.75889 87.0642 5.75889 82.5266 5.75889C81.9706 5.75889 81.5337 6.20371 81.5337 6.7518C81.5337 10.2051 81.5337 21.6673 81.5337 25.1206C81.5337 25.6687 81.9706 26.1136 82.5266 26.1136C87.0642 26.1136 105.791 26.1136 110.328 26.1136C110.874 26.1136 111.321 25.6687 111.321 25.1206C111.321 21.6673 111.321 10.2051 111.321 6.7518ZM115.005 5.75889C116.434 5.75889 117.586 6.91563 117.586 8.34046C117.586 9.76529 116.434 10.922 115.005 10.922C113.585 10.922 112.423 9.76529 112.423 8.34046C112.423 6.91563 113.585 5.75889 115.005 5.75889ZM115.005 6.7518C115.888 6.7518 116.593 7.46372 116.593 8.34046C116.593 9.2172 115.888 9.92911 115.005 9.92911C114.131 9.92911 113.416 9.2172 113.416 8.34046C113.416 7.46372 114.131 6.7518 115.005 6.7518ZM103.695 3.77306H112.393L112.572 2.52597L103.695 3.77306ZM86.5677 3.20511L87.1535 0.992911H102.047L86.5677 3.20511Z" fill="#00C4FE"/>
<path fill-rule="evenodd" clip-rule="evenodd" d="M30.9109 42.7673L35.0215 72.0215L35.4684 71.664V112.786C35.4684 114.666 36.9874 116.192 38.874 116.192H100.176C102.053 116.192 103.582 114.666 103.582 112.786V51.2081C103.582 49.3285 102.053 47.8034 100.176 47.8034H38.874C36.9874 47.8034 35.4684 49.3285 35.4684 51.2081V45.0679L30.9109 42.7673H108.596V121.228H30.4541V73.1901L34.1081 72.652L30.4541 46.6585V42.7673H30.9109ZM31.308 71.2212L32.9364 71.4535L31.308 59.8593V71.2212ZM32.2613 45.4442L34.4754 46.037V60.9297L32.2613 45.4442Z" fill="#00C4FE"/>
<path fill-rule="evenodd" clip-rule="evenodd" d="M70 66C78.8307 66 86 73.1693 86 82C86 90.8307 78.8307 98 70 98C61.1693 98 54 90.8307 54 82C54 73.1693 61.1693 66 70 66ZM70 67.3333C78.0947 67.3333 84.6667 73.9053 84.6667 82C84.6667 90.0947 78.0947 96.6667 70 96.6667C61.9053 96.6667 55.3333 90.0947 55.3333 82C55.3333 73.9053 61.9053 67.3333 70 67.3333Z" fill="#808080"/>
<path d="M86 82C86 73.1693 78.8307 66 70 66C61.1693 66 54 73.1693 54 82C54 90.8307 61.1693 98 70 98C78.8307 98 86 90.8307 86 82Z" fill="#1CC005"/>
<path fill-rule="evenodd" clip-rule="evenodd" d="M58.756 84.2487L66.2747 91.396L81.202 78.3793C81.7567 77.8953 81.8147 77.0533 81.3307 76.498C80.8467 75.9433 80.004 75.8853 79.4493 76.3693L66.352 87.7907L60.5933 82.316C60.0593 81.8087 59.2153 81.83 58.708 82.364C58.2007 82.898 58.222 83.7413 58.756 84.2487Z" fill="#F6F6F6"/>
</g>
<defs>
<clipPath id="clip0_911_15234">
<rect width="140" height="140" fill="white"/>
</clipPath>
</defs>
</svg>
