<svg width="41" height="23" viewBox="0 0 41 23" fill="none" xmlns="http://www.w3.org/2000/svg">
<path fill-rule="evenodd" clip-rule="evenodd" d="M24.6879 0.762329C25.7617 0.762329 26.6403 1.63602 26.6403 2.71471V20.2861C26.6403 21.3639 25.7617 22.2385 24.6879 22.2385H1.95238C0.86881 22.2385 0 21.3639 0 20.2861V2.71471C0 1.63602 0.86881 0.762329 1.95238 0.762329H24.6879ZM1.95238 2.71471H24.6879V20.2861H1.95238V2.71471ZM39.1637 19.4271C38.5975 19.7854 37.8946 19.8283 37.2894 19.5413L30.0559 16.1149C29.3725 15.7918 28.9332 15.1045 28.9332 14.3499V8.69193C28.9332 7.92952 29.3822 7.23545 30.0753 6.91819L37.3089 3.59915C37.9141 3.32191 38.617 3.37169 39.1832 3.73093C39.7397 4.08919 40.0716 4.70907 40.0716 5.37385V17.7773C40.0716 18.447 39.7299 19.0688 39.1637 19.4271ZM30.8856 14.3499L38.1192 17.7773V5.37385L30.8856 8.69193V14.3499Z" fill="#00C4FE"/>
</svg>
