<svg width="40" height="40" viewBox="0 0 40 40" fill="none" xmlns="http://www.w3.org/2000/svg">
<path fill-rule="evenodd" clip-rule="evenodd" d="M20 0C31.0383 0 40 8.96167 40 20C40 31.0383 31.0383 40 20 40C8.96167 40 0 31.0383 0 20C0 8.96167 8.96167 0 20 0ZM20 1.66667C30.1183 1.66667 38.3333 9.88167 38.3333 20C38.3333 30.1183 30.1183 38.3333 20 38.3333C9.88167 38.3333 1.66667 30.1183 1.66667 20C1.66667 9.88167 9.88167 1.66667 20 1.66667ZM5.945 22.8108L15.3433 31.745L34.0025 15.4742C34.6958 14.8692 34.7683 13.8167 34.1633 13.1225C33.5583 12.4292 32.505 12.3567 31.8116 12.9617L15.44 27.2383L8.24165 20.395C7.57415 19.7608 6.51915 19.7875 5.88498 20.455C5.25082 21.1225 5.2775 22.1767 5.945 22.8108Z" fill="#00C4FE"/>
</svg>
