<svg width="28" height="28" viewBox="0 0 28 28" fill="none" xmlns="http://www.w3.org/2000/svg">
<path fill-rule="evenodd" clip-rule="evenodd" d="M14 0C21.728 0 28 6.2734 28 14C28 21.7266 21.728 28 14 28C6.272 28 0 21.7266 0 14C0 6.2734 6.272 0 14 0ZM14 2.1C20.566 2.1 25.9 7.4319 25.9 14C25.9 20.5674 20.566 25.9 14 25.9C7.434 25.9 2.1 20.5674 2.1 14C2.1 7.4319 7.434 2.1 14 2.1ZM13.629 15.2915C13.664 15.316 13.699 15.3391 13.741 15.3594L20.209 18.8468C20.72 19.1219 21.357 18.9308 21.63 18.4205C21.903 17.9102 21.714 17.2732 21.203 16.9981L15.057 13.685V4.86221C15.057 4.28191 14.588 3.81221 14.007 3.81221C13.426 3.81221 12.957 4.28191 12.957 4.86221V14.3122C12.957 14.7581 13.237 15.1396 13.629 15.2915Z" fill="#00C4FE"/>
</svg>
