<svg width="32" height="32" viewBox="0 0 32 32" fill="none" xmlns="http://www.w3.org/2000/svg">
<path fill-rule="evenodd" clip-rule="evenodd" d="M23.4109 3.57673V30.7069C23.4109 31.1091 23.7309 31.4342 24.1381 31.4342C24.5381 31.4342 24.8654 31.1091 24.8654 30.7069V3.57673C24.8654 3.17455 24.5381 2.84945 24.1381 2.84945C23.7309 2.84945 23.4109 3.17455 23.4109 3.57673ZM28.1454 1.10763V21.3266C28.1454 21.9287 28.6327 22.4175 29.2363 22.4175C29.84 22.4175 30.3272 21.9287 30.3272 21.3266V1.10763C30.3272 0.504724 29.84 0.0167236 29.2363 0.0167236C28.6327 0.0167236 28.1454 0.504724 28.1454 1.10763ZM13.6 1.09091V21.3105C13.6 21.9127 14.0872 22.4015 14.6909 22.4015C15.2945 22.4015 15.7818 21.9127 15.7818 21.3105V1.09091C15.7818 0.488727 15.2945 0 14.6909 0C14.0872 0 13.6 0.488727 13.6 1.09091ZM21.1782 3.57673V19.096C21.1782 19.4975 21.5055 19.8233 21.9055 19.8233C22.3127 19.8233 22.6327 19.4975 22.6327 19.096V3.57673C22.6327 3.17455 22.3127 2.84945 21.9055 2.84945C21.5055 2.84945 21.1782 3.17455 21.1782 3.57673ZM25.6364 3.57673V19.096C25.6364 19.4975 25.9564 19.8233 26.3636 19.8233C26.7636 19.8233 27.0909 19.4975 27.0909 19.096V3.57673C27.0909 3.17455 26.7636 2.84945 26.3636 2.84945C25.9564 2.84945 25.6364 3.17455 25.6364 3.57673ZM18.9527 3.57673V19.096C18.9527 19.4975 19.28 19.8233 19.68 19.8233C20.0872 19.8233 20.4072 19.4975 20.4072 19.096V3.57673C20.4072 3.17455 20.0872 2.84945 19.68 2.84945C19.28 2.84945 18.9527 3.17455 18.9527 3.57673ZM16.7273 3.55782V19.0771C16.7273 19.4785 17.0545 19.8044 17.4545 19.8044C17.8618 19.8044 18.1818 19.4785 18.1818 19.0771V3.55782C18.1818 3.15564 17.8618 2.83054 17.4545 2.83054C17.0545 2.83054 16.7273 3.15564 16.7273 3.55782ZM2.68359 17.2531C2.52359 17.2531 2.37817 17.1971 2.26181 17.0865C2.15272 16.9753 2.08727 16.8335 2.08727 16.6618C2.08727 16.5105 2.14544 16.3738 2.25453 16.2531L6.85085 10.8284C7.09813 10.5556 7.30182 10.2502 7.45455 9.912C7.60727 9.57382 7.67995 9.25818 7.67995 8.96509C7.67995 8.49018 7.58541 8.07127 7.40359 7.70763C7.2145 7.344 6.9527 7.05819 6.61088 6.85164C6.27634 6.64437 5.89091 6.54109 5.45455 6.54109C5.03273 6.54109 4.64003 6.64945 4.29821 6.86618C3.94912 7.08363 3.67275 7.37381 3.47639 7.73745C3.28002 8.10109 3.17818 8.51054 3.17818 8.96509C3.17818 9.12654 3.12729 9.26327 3.0182 9.37381C2.90184 9.48509 2.76359 9.54109 2.58904 9.54109C2.42904 9.54109 2.2909 9.48509 2.17454 9.37381C2.05817 9.26327 2 9.12654 2 8.96509C2 8.288 2.15272 7.68218 2.45091 7.14691C2.75636 6.61163 3.17087 6.18691 3.68723 5.87418C4.21087 5.56072 4.8 5.40436 5.45455 5.40436C6.10909 5.40436 6.69821 5.55564 7.2073 5.85891C7.71639 6.16218 8.11631 6.58109 8.39995 7.11637C8.69086 7.65164 8.83638 8.26836 8.83638 8.96509C8.83638 9.29818 8.77813 9.61672 8.67631 9.91927C8.56722 10.2225 8.42179 10.5127 8.23997 10.7906C8.05815 11.0684 7.86183 11.3287 7.65092 11.5709L3.7745 16.0713H8.51634C8.67634 16.0713 8.81457 16.1316 8.93093 16.2531C9.04729 16.3738 9.10547 16.5105 9.10547 16.6618C9.10547 16.8335 9.04729 16.9753 8.93093 17.0865C8.81457 17.1971 8.67634 17.2531 8.51634 17.2531H2.68359Z" fill="#00C4FE"/>
</svg>
