<svg width="32" height="32" viewBox="0 0 32 32" fill="none" xmlns="http://www.w3.org/2000/svg">
<path fill-rule="evenodd" clip-rule="evenodd" d="M23.6145 3.57673V30.7069C23.6145 31.1091 23.9418 31.4342 24.3418 31.4342C24.7418 31.4342 25.0691 31.1091 25.0691 30.7069V3.57673C25.0691 3.17455 24.7418 2.84945 24.3418 2.84945C23.9418 2.84945 23.6145 3.17455 23.6145 3.57673ZM28.3491 1.10763V21.3266C28.3491 21.9287 28.8363 22.4175 29.44 22.4175C30.0436 22.4175 30.5309 21.9287 30.5309 21.3266V1.10763C30.5309 0.504724 30.0436 0.0167236 29.44 0.0167236C28.8363 0.0167236 28.3491 0.504724 28.3491 1.10763ZM13.8036 1.09091V21.3105C13.8036 21.9127 14.2909 22.4015 14.8945 22.4015C15.4982 22.4015 15.9854 21.9127 15.9854 21.3105V1.09091C15.9854 0.488727 15.4982 0 14.8945 0C14.2909 0 13.8036 0.488727 13.8036 1.09091ZM19.1636 3.57673V19.096C19.1636 19.4975 19.4909 19.8233 19.8909 19.8233C20.2909 19.8233 20.6182 19.4975 20.6182 19.096V3.57673C20.6182 3.17455 20.2909 2.84945 19.8909 2.84945C19.4909 2.84945 19.1636 3.17455 19.1636 3.57673ZM21.389 3.57673V19.096C21.389 19.4975 21.7163 19.8233 22.1163 19.8233C22.5163 19.8233 22.8436 19.4975 22.8436 19.096V3.57673C22.8436 3.17455 22.5163 2.84945 22.1163 2.84945C21.7163 2.84945 21.389 3.17455 21.389 3.57673ZM25.8399 3.57673V19.096C25.8399 19.4975 26.1672 19.8233 26.5672 19.8233C26.9672 19.8233 27.2945 19.4975 27.2945 19.096V3.57673C27.2945 3.17455 26.9672 2.84945 26.5672 2.84945C26.1672 2.84945 25.8399 3.17455 25.8399 3.57673ZM16.9381 3.55782V19.0771C16.9381 19.4785 17.2654 19.8044 17.6654 19.8044C18.0654 19.8044 18.3927 19.4785 18.3927 19.0771V3.55782C18.3927 3.15564 18.0654 2.83054 17.6654 2.83054C17.2654 2.83054 16.9381 3.15564 16.9381 3.55782ZM5.71635 17.3287C5.00363 17.3287 4.3709 17.1745 3.8109 16.8662C3.2509 16.5585 2.80722 16.1367 2.48722 15.6015C2.15994 15.0662 2 14.4596 2 13.7833C2 13.6116 2.05088 13.4647 2.1527 13.344C2.25452 13.2225 2.39274 13.1622 2.56001 13.1622C2.73456 13.1622 2.8727 13.2225 2.97452 13.344C3.06907 13.4647 3.11994 13.6116 3.11994 13.7833C3.11994 14.248 3.23636 14.6647 3.45455 15.0335C3.68 15.4022 3.98546 15.6945 4.37092 15.912C4.76364 16.1295 5.19267 16.2378 5.66539 16.2378C6.45812 16.2378 7.06907 16.0182 7.51997 15.5789C7.96361 15.1389 8.18182 14.5709 8.18182 13.8742C8.18182 13.3789 8.07996 12.9476 7.86905 12.5789C7.65087 12.2102 7.36728 11.9222 7.00364 11.7149C6.64 11.5076 6.23268 11.4044 5.7745 11.4044C5.6145 11.4044 5.47637 11.3491 5.36728 11.2378C5.25091 11.1265 5.19993 10.9855 5.19993 10.8138C5.19993 10.6516 5.25091 10.5156 5.36728 10.4044C5.47637 10.2931 5.6145 10.2378 5.7745 10.2378C6.13087 10.2378 6.45084 10.1491 6.74902 9.97237C7.0472 9.79564 7.28729 9.56073 7.4691 9.26837C7.65092 8.97528 7.74538 8.65164 7.74538 8.29819C7.74538 7.76291 7.56357 7.31636 7.19993 6.95709C6.83629 6.59854 6.34902 6.41963 5.74538 6.41963C5.32357 6.41963 4.93816 6.50255 4.61088 6.66982C4.27634 6.83637 4.01455 7.05819 3.82546 7.336C3.64364 7.61382 3.54909 7.92945 3.54909 8.2829C3.54909 8.45454 3.49085 8.59855 3.38903 8.71491C3.27994 8.83127 3.14908 8.88945 2.98908 8.88945C2.81453 8.88945 2.6763 8.83127 2.57449 8.71491C2.47267 8.59855 2.42907 8.45964 2.42907 8.29819C2.42907 7.74255 2.56722 7.24001 2.85813 6.79055C3.14904 6.3411 3.53448 5.98764 4.02903 5.73018C4.52358 5.47273 5.09811 5.34399 5.74538 5.34399C6.3272 5.34399 6.85815 5.47273 7.33088 5.73018C7.79633 5.98764 8.17454 6.3411 8.45091 6.79055C8.72727 7.24001 8.86541 7.74255 8.86541 8.29819C8.86541 8.64146 8.78544 8.97528 8.61816 9.29819C8.45089 9.62182 8.23268 9.912 7.95632 10.1695C7.68723 10.4269 7.38179 10.6269 7.06179 10.768C7.57815 10.9193 8.00726 11.152 8.34908 11.4647C8.69089 11.7782 8.94547 12.144 9.10547 12.5636C9.27274 12.9825 9.35272 13.4196 9.35272 13.8742C9.35272 14.5411 9.19269 15.1345 8.87269 15.6545C8.55269 16.1745 8.11629 16.584 7.56357 16.8815C7.00357 17.1796 6.39272 17.3287 5.71635 17.3287Z" fill="#00C4FE"/>
</svg>
