<svg width="32" height="32" viewBox="0 0 32 32" fill="none" xmlns="http://www.w3.org/2000/svg">
<path fill-rule="evenodd" clip-rule="evenodd" d="M22.6436 3.57673V30.7069C22.6436 31.1091 22.9709 31.4342 23.3709 31.4342C23.7709 31.4342 24.0982 31.1091 24.0982 30.7069V3.57673C24.0982 3.17455 23.7709 2.84945 23.3709 2.84945C22.9709 2.84945 22.6436 3.17455 22.6436 3.57673ZM27.3782 1.10763V21.3265C27.3782 21.9287 27.8655 22.4174 28.4691 22.4174C29.0727 22.4174 29.56 21.9287 29.56 21.3265V1.10763C29.56 0.504724 29.0727 0.0167236 28.4691 0.0167236C27.8655 0.0167236 27.3782 0.504724 27.3782 1.10763ZM12.8327 1.09091V21.3105C12.8327 21.9127 13.32 22.4015 13.9237 22.4015C14.5273 22.4015 15.0146 21.9127 15.0146 21.3105V1.09091C15.0146 0.488727 14.5273 0 13.9237 0C13.32 0 12.8327 0.488727 12.8327 1.09091ZM24.8691 3.57673V19.096C24.8691 19.4974 25.1963 19.8233 25.5963 19.8233C25.9963 19.8233 26.3236 19.4974 26.3236 19.096V3.57673C26.3236 3.17455 25.9963 2.84945 25.5963 2.84945C25.1963 2.84945 24.8691 3.17455 24.8691 3.57673ZM18.1927 3.57673V19.096C18.1927 19.4974 18.52 19.8233 18.92 19.8233C19.32 19.8233 19.6473 19.4974 19.6473 19.096V3.57673C19.6473 3.17455 19.32 2.84945 18.92 2.84945C18.52 2.84945 18.1927 3.17455 18.1927 3.57673ZM20.4181 3.57673V19.096C20.4181 19.4974 20.7454 19.8233 21.1454 19.8233C21.5454 19.8233 21.8727 19.4974 21.8727 19.096V3.57673C21.8727 3.17455 21.5454 2.84945 21.1454 2.84945C20.7454 2.84945 20.4181 3.17455 20.4181 3.57673ZM15.9672 3.55708V19.0771C15.9672 19.4785 16.2872 19.8044 16.6945 19.8044C17.0945 19.8044 17.4218 19.4785 17.4218 19.0771V3.55708C17.4218 3.15563 17.0945 2.82981 16.6945 2.82981C16.2872 2.82981 15.9672 3.15563 15.9672 3.55708ZM6.00364 17.2531C5.83637 17.2531 5.69822 17.1971 5.58185 17.0858C5.46549 16.9753 5.40732 16.8334 5.40732 16.6618V6.81309L3.89453 7.344C3.78544 7.39418 3.68368 7.41963 3.58913 7.41963C3.42186 7.41963 3.27635 7.36363 3.16726 7.25309C3.05817 7.14181 3 7.00508 3 6.84363C3 6.72217 3.02909 6.61163 3.08727 6.51054C3.13818 6.40945 3.24001 6.33381 3.3782 6.2829L5.71271 5.47999C5.76362 5.45963 5.81451 5.44218 5.87269 5.4269C5.9236 5.41163 5.97456 5.40436 6.0182 5.40436C6.18547 5.40436 6.32362 5.46254 6.43271 5.5789C6.5418 5.69454 6.59277 5.83345 6.59277 5.99491V16.6618C6.59277 16.8334 6.53452 16.9753 6.42543 17.0858C6.31634 17.1971 6.17091 17.2531 6.00364 17.2531Z" fill="#00C4FE"/>
</svg>
