<?xml version="1.0" encoding="iso-8859-1"?>
<!-- Generator: Adobe Illustrator 19.0.0, SVG Export Plug-In . SVG Version: 6.00 Build 0)  -->
<svg version="1.1" id="Layer_1" xmlns="http://www.w3.org/2000/svg" xmlns:xlink="http://www.w3.org/1999/xlink" x="0px" y="0px"
	 viewBox="0 0 458.9 458.9" style="enable-background:new 0 0 458.9 458.9;" xml:space="preserve">
<g>
	<g>
		<g>
			<path d="M449.803,25.552c-5.864-5.861-13.659-9.089-21.959-9.089l-338.39,0.113C72.34,16.582,58.418,30.509,58.418,47.623v42.742
				c3.26,0,75.482,0,79.299,0c33.428,0,60.667,27.011,61.042,60.353h170.677c33.86,0,61.046,27.634,61.046,61.046v66.295
				c15.893-1.339,28.418-14.693,28.418-30.926V47.509C458.899,39.216,455.669,31.418,449.803,25.552z"/>
			<path d="M369.435,180.717H168.762V151.41c0-17.119-13.927-31.046-31.045-31.046H31.046C13.93,120.365,0,134.289,0,151.41v259.981
				c0,17.116,13.925,31.045,31.046,31.045h338.39c17.119,0,31.046-13.927,31.046-31.045V211.763
				C400.481,194.641,386.554,180.717,369.435,180.717z"/>
		</g>
	</g>
</g>
<g>
</g>
<g>
</g>
<g>
</g>
<g>
</g>
<g>
</g>
<g>
</g>
<g>
</g>
<g>
</g>
<g>
</g>
<g>
</g>
<g>
</g>
<g>
</g>
<g>
</g>
<g>
</g>
<g>
</g>
</svg>
