<svg width="32" height="32" viewBox="0 0 32 32" fill="none" xmlns="http://www.w3.org/2000/svg">
<path fill-rule="evenodd" clip-rule="evenodd" d="M30.9058 10.0967C31.0857 9.91293 31.1436 9.63668 31.0408 9.3964C30.9444 9.15612 30.7067 9 30.4497 9H11.176C11.0026 9 10.842 9.06746 10.7199 9.18824L1.0831 18.8251C0.903211 19.0088 0.845337 19.2851 0.94813 19.5247C1.0445 19.765 1.27581 19.9217 1.53922 19.9217H20.8129C20.9799 19.9217 21.1469 19.8536 21.269 19.7335L30.9058 10.0967ZM28.8949 10.2849L20.543 18.6368H3.08755L11.4395 10.2849H28.8949Z" fill="#808080"/>
<path fill-rule="evenodd" clip-rule="evenodd" d="M1.54649 22.482H22.1063C22.2801 22.482 22.441 22.4178 22.5697 22.2891L30.9058 13.953C31.1633 13.6955 31.1374 13.3094 30.8928 13.0519C30.6546 12.7944 30.2427 12.7944 29.9852 13.0519L21.8424 21.1946H1.55294C1.1989 21.1946 0.909235 21.4843 0.909234 21.8383C0.909233 22.1924 1.19245 22.482 1.54649 22.482Z" fill="#808080"/>
</svg>
