<svg width="32" height="32" viewBox="0 0 32 32" fill="none" xmlns="http://www.w3.org/2000/svg">
<path d="M11.6823 18.1631C11.6823 18.5703 11.6048 18.9388 11.469 19.2491C11.3332 19.5594 11.1781 19.8309 11.0423 20.0443C10.8678 20.3158 10.7514 20.5291 10.6932 20.7037C10.6351 20.8782 10.5963 21.0528 10.5963 21.2079C10.5963 21.4406 10.6545 21.654 10.7514 21.8673C10.8678 22.0806 11.0423 22.294 11.2751 22.4879C11.4496 22.6043 11.5466 22.7594 11.6048 22.934C11.6629 23.1085 11.6435 23.2831 11.5466 23.4576C11.4496 23.6322 11.3138 23.7291 11.1199 23.7485C10.9454 23.7873 10.7708 23.7485 10.5963 23.6322C10.189 23.3025 9.8593 22.934 9.62657 22.5073C9.41324 22.0806 9.29688 21.6346 9.29688 21.1691C9.29688 20.7618 9.37445 20.4128 9.51021 20.1218C9.64597 19.8309 9.78172 19.5788 9.91748 19.3655C10.0726 19.1134 10.189 18.9194 10.2666 18.7449C10.3441 18.5703 10.3829 18.3958 10.3829 18.1824C10.3829 17.9691 10.3441 17.7946 10.2666 17.6394C10.2084 17.4843 10.1114 17.3485 9.99506 17.2321C9.8593 17.0964 9.74294 16.9412 9.68475 16.7861C9.62657 16.6503 9.66536 16.4952 9.76233 16.3206C9.8593 16.1461 9.99506 16.0297 10.189 15.9909C10.3829 15.9521 10.5575 15.9909 10.732 16.1267C11.372 16.6309 11.6823 17.3097 11.6823 18.1631Z" fill="#808080"/>
<path d="M17.5573 18.1631C17.5573 18.5703 17.4798 18.9388 17.344 19.2491C17.2082 19.5594 17.0531 19.8309 16.9173 20.0443C16.7428 20.3158 16.6264 20.5291 16.5682 20.7037C16.5101 20.8782 16.4713 21.0528 16.4713 21.2079C16.4713 21.4406 16.5295 21.654 16.6264 21.8673C16.7428 22.0806 16.9173 22.294 17.1501 22.4879C17.3246 22.6043 17.4216 22.7594 17.4798 22.934C17.5379 23.1085 17.5185 23.2831 17.4216 23.4576C17.3246 23.6322 17.1888 23.7291 16.9949 23.7485C16.8204 23.7873 16.6458 23.7485 16.4713 23.6322C16.064 23.3025 15.7343 22.934 15.5016 22.5073C15.2882 22.0806 15.1719 21.6346 15.1719 21.1691C15.1719 20.7618 15.2495 20.4128 15.3852 20.1218C15.521 19.8309 15.6567 19.5788 15.7925 19.3655C15.9476 19.1134 16.064 18.9194 16.1416 18.7449C16.2191 18.5703 16.2579 18.3958 16.2579 18.1824C16.2579 17.9691 16.2191 17.7946 16.1416 17.6394C16.0834 17.4843 15.9864 17.3485 15.8701 17.2321C15.7343 17.0964 15.6179 16.9412 15.5598 16.7861C15.5016 16.6503 15.5404 16.4952 15.6373 16.3206C15.7343 16.1461 15.8701 16.0297 16.064 15.9909C16.2579 15.9521 16.4325 15.9909 16.607 16.1267C17.247 16.6309 17.5573 17.3097 17.5573 18.1631Z" fill="#808080"/>
<path d="M23.4362 18.1631C23.4362 18.5703 23.3587 18.9388 23.2229 19.2491C23.0871 19.5594 22.932 19.8309 22.7962 20.0443C22.6217 20.3158 22.5053 20.5291 22.4471 20.7037C22.389 20.8782 22.3502 21.0528 22.3502 21.2079C22.3502 21.4406 22.4084 21.654 22.5053 21.8673C22.6217 22.0806 22.7962 22.294 23.029 22.4879C23.2035 22.6043 23.3005 22.7594 23.3587 22.934C23.4168 23.1085 23.3975 23.2831 23.3005 23.4576C23.2035 23.6322 23.0678 23.7291 22.8738 23.7485C22.6993 23.7873 22.5247 23.7485 22.3502 23.6322C21.9429 23.3025 21.6132 22.934 21.3805 22.5073C21.1671 22.0806 21.0508 21.6346 21.0508 21.1691C21.0508 20.7618 21.1284 20.4128 21.2641 20.1218C21.3999 19.8309 21.5356 19.5788 21.6714 19.3655C21.8265 19.1134 21.9429 18.9194 22.0205 18.7449C22.0981 18.5703 22.1368 18.3958 22.1368 18.1824C22.1368 17.9691 22.0981 17.7946 22.0205 17.6394C21.9623 17.4843 21.8653 17.3485 21.749 17.2321C21.6132 17.0964 21.4968 16.9412 21.4387 16.7861C21.3805 16.6503 21.4193 16.4952 21.5162 16.3206C21.6132 16.1461 21.749 16.0297 21.9429 15.9909C22.1368 15.9521 22.3114 15.9909 22.4859 16.1267C23.1259 16.6309 23.4362 17.3097 23.4362 18.1631Z" fill="#808080"/>
<path fill-rule="evenodd" clip-rule="evenodd" d="M28.7255 0.727273C28.7255 0.325818 28.3982 0 27.9982 0H18.5437C18.1437 0 17.8164 0.325818 17.8164 0.727273V6.54545C17.8164 6.94691 18.1437 7.27273 18.5437 7.27273H27.9982C28.3982 7.27273 28.7255 6.94691 28.7255 6.54545V0.727273ZM27.271 1.45455V5.81818H19.271V1.45455H27.271Z" fill="#808080"/>
<path fill-rule="evenodd" clip-rule="evenodd" d="M27.2727 8.72731V8.00003C27.2727 8.00003 28.6982 7.99783 28.7273 7.9942V31.0109C28.7273 31.4124 28.4 31.7382 28 31.7382H4.72727C4.32727 31.7382 4 31.4124 4 31.0109V1.92002C4 1.51857 4.32727 1.19275 4.72727 1.19275H17.0909V2.64729H5.45455V8.72731H27.2727ZM27.2727 10.1819V30.2837H5.45455V10.1819H27.2727Z" fill="#808080"/>
</svg>
